<?xml version="1.0" standalone="no"?>
<!DOCTYPE svg PUBLIC "-//W3C//DTD SVG 20010904//EN"
 "http://www.w3.org/TR/2001/REC-SVG-20010904/DTD/svg10.dtd">
<svg version="1.0" xmlns="http://www.w3.org/2000/svg"
 width="200.000000pt" height="200.000000pt" viewBox="0 0 200.000000 200.000000"
 preserveAspectRatio="xMidYMid meet">
<metadata>
Created by potrace 1.14, written by Peter Selinger 2001-2017
</metadata>
<g transform="translate(0.000000,200.000000) scale(0.100000,-0.100000)"
fill="#000000" stroke="none">
<path d="M1109 1480 c-68 -55 -89 -143 -54 -220 l18 -39 39 27 c46 31 86 105
83 154 -2 46 -24 108 -38 108 -7 0 -29 -13 -48 -30z"/>
<path d="M691 1336 c1 -94 13 -134 53 -177 39 -41 63 -49 167 -54 l89 -5 1 47
c2 131 -6 167 -54 215 -41 42 -68 51 -164 53 l-93 3 1 -82z"/>
<path d="M1248 1384 c-10 -3 -21 -18 -24 -32 -16 -69 -108 -162 -160 -162 -16
0 -20 -8 -27 -61 -5 -36 -5 -37 35 -43 129 -21 234 -122 263 -254 6 -31 9 -33
38 -26 163 35 262 221 204 384 -41 116 -138 191 -251 196 -34 1 -69 0 -78 -2z"/>
<path d="M530 1241 c-117 -36 -198 -142 -208 -272 -12 -164 101 -295 260 -305
32 -1 71 2 87 7 28 10 28 11 28 92 -1 69 3 91 25 137 33 67 39 75 105 127 l52
41 -44 7 c-62 9 -124 58 -155 123 l-25 52 -50 -1 c-27 0 -61 -4 -75 -8z"/>
<path d="M943 1050 c-119 -26 -214 -147 -216 -276 -2 -163 143 -295 309 -281
158 12 265 125 267 282 1 61 -3 78 -31 130 -65 120 -188 174 -329 145z"/>
</g>
</svg>
