<svg width="221" height="74" viewBox="0 0 221 74" fill="none" xmlns="http://www.w3.org/2000/svg">
<mask id="path-1-outside-1_21_178" maskUnits="userSpaceOnUse" x="1" y="8" width="144" height="68" fill="black">
<rect fill="white" x="1" y="8" width="144" height="68"/>
<path d="M14.532 73V20.164H2.436V10.42H25.956V73H14.532ZM61.0949 74.008C56.1109 74.008 51.7429 72.664 47.9909 69.976C44.2389 67.288 41.2989 63.508 39.1709 58.636C37.0989 53.764 36.0629 48.108 36.0629 41.668C36.0629 35.172 37.0989 29.516 39.1709 24.7C41.2429 19.884 44.1549 16.132 47.9069 13.444C51.6589 10.756 56.0269 9.412 61.0109 9.412C66.1069 9.412 70.5029 10.756 74.1989 13.444C77.9509 16.132 80.8909 19.912 83.0189 24.784C85.1469 29.6 86.2109 35.228 86.2109 41.668C86.2109 48.108 85.1469 53.764 83.0189 58.636C80.9469 63.452 78.0349 67.232 74.2829 69.976C70.5309 72.664 66.1349 74.008 61.0949 74.008ZM61.1789 63.592C64.0349 63.592 66.4709 62.724 68.4869 60.988C70.5029 59.196 72.0429 56.676 73.1069 53.428C74.2269 50.124 74.7869 46.204 74.7869 41.668C74.7869 37.132 74.2269 33.24 73.1069 29.992C72.0429 26.688 70.4749 24.168 68.4029 22.432C66.3869 20.696 63.9229 19.828 61.0109 19.828C58.2109 19.828 55.8029 20.696 53.7869 22.432C51.7709 24.168 50.2029 26.688 49.0829 29.992C48.0189 33.24 47.4869 37.132 47.4869 41.668C47.4869 46.148 48.0189 50.04 49.0829 53.344C50.2029 56.592 51.7709 59.112 53.7869 60.904C55.8589 62.696 58.3229 63.592 61.1789 63.592ZM118.048 74.008C113.064 74.008 108.696 72.664 104.944 69.976C101.192 67.288 98.2516 63.508 96.1236 58.636C94.0516 53.764 93.0156 48.108 93.0156 41.668C93.0156 35.172 94.0516 29.516 96.1236 24.7C98.1956 19.884 101.108 16.132 104.86 13.444C108.612 10.756 112.98 9.412 117.964 9.412C123.06 9.412 127.456 10.756 131.152 13.444C134.904 16.132 137.844 19.912 139.972 24.784C142.1 29.6 143.164 35.228 143.164 41.668C143.164 48.108 142.1 53.764 139.972 58.636C137.9 63.452 134.988 67.232 131.236 69.976C127.484 72.664 123.088 74.008 118.048 74.008ZM118.132 63.592C120.988 63.592 123.424 62.724 125.44 60.988C127.456 59.196 128.996 56.676 130.06 53.428C131.18 50.124 131.74 46.204 131.74 41.668C131.74 37.132 131.18 33.24 130.06 29.992C128.996 26.688 127.428 24.168 125.356 22.432C123.34 20.696 120.876 19.828 117.964 19.828C115.164 19.828 112.756 20.696 110.74 22.432C108.724 24.168 107.156 26.688 106.036 29.992C104.972 33.24 104.44 37.132 104.44 41.668C104.44 46.148 104.972 50.04 106.036 53.344C107.156 56.592 108.724 59.112 110.74 60.904C112.812 62.696 115.276 63.592 118.132 63.592Z"/>
</mask>
<path d="M14.532 73V20.164H2.436V10.42H25.956V73H14.532ZM61.0949 74.008C56.1109 74.008 51.7429 72.664 47.9909 69.976C44.2389 67.288 41.2989 63.508 39.1709 58.636C37.0989 53.764 36.0629 48.108 36.0629 41.668C36.0629 35.172 37.0989 29.516 39.1709 24.7C41.2429 19.884 44.1549 16.132 47.9069 13.444C51.6589 10.756 56.0269 9.412 61.0109 9.412C66.1069 9.412 70.5029 10.756 74.1989 13.444C77.9509 16.132 80.8909 19.912 83.0189 24.784C85.1469 29.6 86.2109 35.228 86.2109 41.668C86.2109 48.108 85.1469 53.764 83.0189 58.636C80.9469 63.452 78.0349 67.232 74.2829 69.976C70.5309 72.664 66.1349 74.008 61.0949 74.008ZM61.1789 63.592C64.0349 63.592 66.4709 62.724 68.4869 60.988C70.5029 59.196 72.0429 56.676 73.1069 53.428C74.2269 50.124 74.7869 46.204 74.7869 41.668C74.7869 37.132 74.2269 33.24 73.1069 29.992C72.0429 26.688 70.4749 24.168 68.4029 22.432C66.3869 20.696 63.9229 19.828 61.0109 19.828C58.2109 19.828 55.8029 20.696 53.7869 22.432C51.7709 24.168 50.2029 26.688 49.0829 29.992C48.0189 33.24 47.4869 37.132 47.4869 41.668C47.4869 46.148 48.0189 50.04 49.0829 53.344C50.2029 56.592 51.7709 59.112 53.7869 60.904C55.8589 62.696 58.3229 63.592 61.1789 63.592ZM118.048 74.008C113.064 74.008 108.696 72.664 104.944 69.976C101.192 67.288 98.2516 63.508 96.1236 58.636C94.0516 53.764 93.0156 48.108 93.0156 41.668C93.0156 35.172 94.0516 29.516 96.1236 24.7C98.1956 19.884 101.108 16.132 104.86 13.444C108.612 10.756 112.98 9.412 117.964 9.412C123.06 9.412 127.456 10.756 131.152 13.444C134.904 16.132 137.844 19.912 139.972 24.784C142.1 29.6 143.164 35.228 143.164 41.668C143.164 48.108 142.1 53.764 139.972 58.636C137.9 63.452 134.988 67.232 131.236 69.976C127.484 72.664 123.088 74.008 118.048 74.008ZM118.132 63.592C120.988 63.592 123.424 62.724 125.44 60.988C127.456 59.196 128.996 56.676 130.06 53.428C131.18 50.124 131.74 46.204 131.74 41.668C131.74 37.132 131.18 33.24 130.06 29.992C128.996 26.688 127.428 24.168 125.356 22.432C123.34 20.696 120.876 19.828 117.964 19.828C115.164 19.828 112.756 20.696 110.74 22.432C108.724 24.168 107.156 26.688 106.036 29.992C104.972 33.24 104.44 37.132 104.44 41.668C104.44 46.148 104.972 50.04 106.036 53.344C107.156 56.592 108.724 59.112 110.74 60.904C112.812 62.696 115.276 63.592 118.132 63.592Z" fill="url(#paint0_linear_21_178)"/>
<path d="M14.532 73H13.532V74H14.532V73ZM14.532 20.164H15.532V19.164H14.532V20.164ZM2.436 20.164H1.436V21.164H2.436V20.164ZM2.436 10.42V9.41999H1.436V10.42H2.436ZM25.956 10.42H26.956V9.41999H25.956V10.42ZM25.956 73V74H26.956V73H25.956ZM15.532 73V20.164H13.532V73H15.532ZM14.532 19.164H2.436V21.164H14.532V19.164ZM3.436 20.164V10.42H1.436V20.164H3.436ZM2.436 11.42H25.956V9.41999H2.436V11.42ZM24.956 10.42V73H26.956V10.42H24.956ZM25.956 72H14.532V74H25.956V72ZM47.9909 69.976L47.4085 70.7889L47.9909 69.976ZM39.1709 58.636L38.2506 59.0274L38.2545 59.0363L39.1709 58.636ZM39.1709 24.7L38.2523 24.3048L39.1709 24.7ZM47.9069 13.444L47.3245 12.6311V12.6311L47.9069 13.444ZM74.1989 13.444L73.6107 14.2528L73.6165 14.2569L74.1989 13.444ZM83.0189 24.784L82.1025 25.1843L82.1042 25.1882L83.0189 24.784ZM83.0189 58.636L82.1025 58.2357L82.1003 58.2408L83.0189 58.636ZM74.2829 69.976L74.8653 70.789L74.8732 70.7832L74.2829 69.976ZM68.4869 60.988L69.1394 61.7458L69.1454 61.7406L69.1513 61.7354L68.4869 60.988ZM73.1069 53.428L72.1598 53.1069L72.1566 53.1167L73.1069 53.428ZM73.1069 29.992L72.155 30.2985L72.1582 30.3083L72.1615 30.318L73.1069 29.992ZM68.4029 22.432L67.7503 23.1898L67.7607 23.1985L68.4029 22.432ZM53.7869 22.432L53.1344 21.6742V21.6742L53.7869 22.432ZM49.0829 29.992L48.1358 29.6709L48.1326 29.6807L49.0829 29.992ZM49.0829 53.344L48.131 53.6505L48.1342 53.6603L48.1375 53.67L49.0829 53.344ZM53.7869 60.904L53.1225 61.6515L53.1328 61.6604L53.7869 60.904ZM61.0949 73.008C56.3022 73.008 52.1417 71.7196 48.5733 69.1631L47.4085 70.7889C51.3441 73.6084 55.9196 75.008 61.0949 75.008V73.008ZM48.5733 69.1631C44.9888 66.5951 42.1543 62.9681 40.0873 58.2357L38.2545 59.0363C40.4435 64.0479 43.489 67.9809 47.4085 70.7889L48.5733 69.1631ZM40.0911 58.2446C38.0819 53.5201 37.0629 48.0019 37.0629 41.668H35.0629C35.0629 48.2141 36.116 54.0079 38.2507 59.0274L40.0911 58.2446ZM37.0629 41.668C37.0629 35.2764 38.0824 29.7603 40.0895 25.0952L38.2523 24.3048C36.1154 29.2717 35.0629 35.0676 35.0629 41.668H37.0629ZM40.0895 25.0952C42.0995 20.4232 44.9046 16.8251 48.4893 14.2569L47.3245 12.6311C43.4052 15.4389 40.3863 19.3448 38.2523 24.3048L40.0895 25.0952ZM48.4893 14.2569C52.0577 11.7004 56.2182 10.412 61.0109 10.412V8.412C55.8356 8.412 51.2601 9.81156 47.3245 12.6311L48.4893 14.2569ZM61.0109 10.412C65.921 10.412 70.1052 11.7032 73.6107 14.2527L74.7871 12.6353C70.9007 9.80876 66.2928 8.412 61.0109 8.412V10.412ZM73.6165 14.2569C77.201 16.8249 80.0355 20.4519 82.1025 25.1843L83.9353 24.3837C81.7463 19.3721 78.7008 15.4391 74.7813 12.6311L73.6165 14.2569ZM82.1042 25.1882C84.1649 29.8518 85.2109 35.3369 85.2109 41.668H87.2109C87.2109 35.1191 86.1289 29.3482 83.9336 24.3798L82.1042 25.1882ZM85.2109 41.668C85.2109 47.9987 84.165 53.5137 82.1025 58.2357L83.9353 59.0363C86.1288 54.0143 87.2109 48.2173 87.2109 41.668H85.2109ZM82.1003 58.2408C80.0897 62.9141 77.2826 66.5433 73.6926 69.1688L74.8732 70.7832C78.7873 67.9207 81.8041 63.9899 83.9375 59.0312L82.1003 58.2408ZM73.7005 69.1631C70.1341 71.7182 65.9462 73.008 61.0949 73.008V75.008C66.3236 75.008 70.9277 73.6098 74.8653 70.7889L73.7005 69.1631ZM61.1789 64.592C64.2554 64.592 66.928 63.65 69.1394 61.7458L67.8344 60.2302C66.0138 61.798 63.8145 62.592 61.1789 62.592V64.592ZM69.1513 61.7354C71.3304 59.7984 72.9526 57.1112 74.0572 53.7393L72.1566 53.1167C71.1332 56.2408 69.6754 58.5936 67.8225 60.2406L69.1513 61.7354ZM74.054 53.749C75.2178 50.3159 75.7869 46.2822 75.7869 41.668H73.7869C73.7869 46.1258 73.2361 49.9321 72.1598 53.107L74.054 53.749ZM75.7869 41.668C75.7869 37.0545 75.2179 33.0464 74.0523 29.666L72.1615 30.318C73.2359 33.4336 73.7869 37.2095 73.7869 41.668H75.7869ZM74.0588 29.6855C72.9532 26.2523 71.2974 23.5525 69.0451 21.6655L67.7607 23.1985C69.6524 24.7835 71.1326 27.1237 72.155 30.2985L74.0588 29.6855ZM69.0554 21.6742C66.8403 19.7668 64.138 18.828 61.0109 18.828V20.828C63.7078 20.828 65.9335 21.6252 67.7504 23.1898L69.0554 21.6742ZM61.0109 18.828C57.9851 18.828 55.342 19.7733 53.1344 21.6742L54.4394 23.1898C56.2639 21.6187 58.4367 20.828 61.0109 20.828V18.828ZM53.1344 21.6742C50.947 23.5578 49.2958 26.249 48.1358 29.671L50.03 30.313C51.11 27.127 52.5948 24.7782 54.4394 23.1898L53.1344 21.6742ZM48.1326 29.6807C47.0269 33.0559 46.4869 37.0587 46.4869 41.668H48.4869C48.4869 37.2053 49.0109 33.4241 50.0332 30.3033L48.1326 29.6807ZM46.4869 41.668C46.4869 46.2235 47.0274 50.2235 48.131 53.6505L50.0348 53.0375C49.0104 49.8565 48.4869 46.0725 48.4869 41.668H46.4869ZM48.1375 53.67C49.2985 57.0367 50.9478 59.7183 53.1225 61.6514L54.4513 60.1566C52.5941 58.5057 51.1073 56.1473 50.0283 53.018L48.1375 53.67ZM53.1328 61.6604C55.3947 63.6167 58.0938 64.592 61.1789 64.592V62.592C58.552 62.592 56.3231 61.7753 54.4411 60.1476L53.1328 61.6604ZM104.944 69.976L104.361 70.7889L104.944 69.976ZM96.1236 58.636L95.2033 59.0274L95.2072 59.0363L96.1236 58.636ZM96.1236 24.7L95.205 24.3048L96.1236 24.7ZM104.86 13.444L104.277 12.6311V12.6311L104.86 13.444ZM131.152 13.444L130.563 14.2528L130.569 14.2569L131.152 13.444ZM139.972 24.784L139.055 25.1843L139.057 25.1882L139.972 24.784ZM139.972 58.636L139.055 58.2357L139.053 58.2408L139.972 58.636ZM131.236 69.976L131.818 70.789L131.826 70.7832L131.236 69.976ZM125.44 60.988L126.092 61.7458L126.098 61.7406L126.104 61.7354L125.44 60.988ZM130.06 53.428L129.112 53.1069L129.109 53.1167L130.06 53.428ZM130.06 29.992L129.108 30.2985L129.111 30.3083L129.114 30.318L130.06 29.992ZM125.356 22.432L124.703 23.1898L124.713 23.1985L125.356 22.432ZM110.74 22.432L110.087 21.6742V21.6742L110.74 22.432ZM106.036 29.992L105.088 29.6709L105.085 29.6807L106.036 29.992ZM106.036 53.344L105.084 53.6505L105.087 53.6603L105.09 53.67L106.036 53.344ZM110.74 60.904L110.075 61.6515L110.085 61.6604L110.74 60.904ZM118.048 73.008C113.255 73.008 109.094 71.7196 105.526 69.1631L104.361 70.7889C108.297 73.6084 112.872 75.008 118.048 75.008V73.008ZM105.526 69.1631C101.941 66.5951 99.107 62.9681 97.04 58.2357L95.2072 59.0363C97.3962 64.0479 100.442 67.9809 104.361 70.7889L105.526 69.1631ZM97.0438 58.2446C95.0345 53.5201 94.0156 48.0019 94.0156 41.668H92.0156C92.0156 48.2141 93.0686 54.0079 95.2033 59.0274L97.0438 58.2446ZM94.0156 41.668C94.0156 35.2764 95.0351 29.7603 97.0422 25.0952L95.205 24.3048C93.0681 29.2717 92.0156 35.0676 92.0156 41.668H94.0156ZM97.0422 25.0952C99.0522 20.4232 101.857 16.8251 105.442 14.2569L104.277 12.6311C100.358 15.4389 97.3389 19.3448 95.205 24.3048L97.0422 25.0952ZM105.442 14.2569C109.01 11.7004 113.171 10.412 117.964 10.412V8.412C112.788 8.412 108.213 9.81156 104.277 12.6311L105.442 14.2569ZM117.964 10.412C122.874 10.412 127.058 11.7032 130.563 14.2527L131.74 12.6353C127.853 9.80876 123.245 8.412 117.964 8.412V10.412ZM130.569 14.2569C134.154 16.8249 136.988 20.4519 139.055 25.1843L140.888 24.3837C138.699 19.3721 135.654 15.4391 131.734 12.6311L130.569 14.2569ZM139.057 25.1882C141.118 29.8518 142.164 35.3369 142.164 41.668H144.164C144.164 35.1191 143.082 29.3482 140.886 24.3798L139.057 25.1882ZM142.164 41.668C142.164 47.9987 141.118 53.5137 139.055 58.2357L140.888 59.0363C143.081 54.0143 144.164 48.2173 144.164 41.668H142.164ZM139.053 58.2408C137.042 62.9141 134.235 66.5433 130.645 69.1688L131.826 70.7832C135.74 67.9207 138.757 63.9899 140.89 59.0312L139.053 58.2408ZM130.653 69.1631C127.087 71.7182 122.899 73.008 118.048 73.008V75.008C123.276 75.008 127.88 73.6098 131.818 70.7889L130.653 69.1631ZM118.132 64.592C121.208 64.592 123.881 63.65 126.092 61.7458L124.787 60.2302C122.966 61.798 120.767 62.592 118.132 62.592V64.592ZM126.104 61.7354C128.283 59.7984 129.905 57.1112 131.01 53.7393L129.109 53.1167C128.086 56.2408 126.628 58.5936 124.775 60.2406L126.104 61.7354ZM131.007 53.749C132.17 50.3159 132.74 46.2822 132.74 41.668H130.74C130.74 46.1258 130.189 49.9321 129.113 53.107L131.007 53.749ZM132.74 41.668C132.74 37.0545 132.171 33.0464 131.005 29.666L129.114 30.318C130.189 33.4336 130.74 37.2095 130.74 41.668H132.74ZM131.011 29.6855C129.906 26.2523 128.25 23.5525 125.998 21.6655L124.713 23.1985C126.605 24.7835 128.085 27.1237 129.108 30.2985L131.011 29.6855ZM126.008 21.6742C123.793 19.7668 121.091 18.828 117.964 18.828V20.828C120.66 20.828 122.886 21.6252 124.703 23.1898L126.008 21.6742ZM117.964 18.828C114.938 18.828 112.295 19.7733 110.087 21.6742L111.392 23.1898C113.217 21.6187 115.389 20.828 117.964 20.828V18.828ZM110.087 21.6742C107.9 23.5578 106.248 26.249 105.088 29.671L106.983 30.313C108.063 27.127 109.547 24.7782 111.392 23.1898L110.087 21.6742ZM105.085 29.6807C103.98 33.0559 103.44 37.0587 103.44 41.668H105.44C105.44 37.2053 105.964 33.4241 106.986 30.3033L105.085 29.6807ZM103.44 41.668C103.44 46.2235 103.98 50.2235 105.084 53.6505L106.987 53.0375C105.963 49.8565 105.44 46.0725 105.44 41.668H103.44ZM105.09 53.67C106.251 57.0367 107.9 59.7183 110.075 61.6514L111.404 60.1566C109.547 58.5057 108.06 56.1473 106.981 53.018L105.09 53.67ZM110.085 61.6604C112.347 63.6167 115.046 64.592 118.132 64.592V62.592C115.505 62.592 113.276 61.7753 111.394 60.1476L110.085 61.6604Z" fill="url(#paint1_radial_21_178)" fill-opacity="0.18" mask="url(#path-1-outside-1_21_178)"/>
<mask id="path-3-outside-2_21_178" maskUnits="userSpaceOnUse" x="170" y="20" width="45" height="44" fill="black">
<rect fill="white" x="170" y="20" width="45" height="44"/>
<path d="M188.016 63V46.704H171.72V37.212H188.016V21H197.508V37.212H213.72V46.704H197.508V63H188.016Z"/>
</mask>
<path d="M188.016 63V46.704H171.72V37.212H188.016V21H197.508V37.212H213.72V46.704H197.508V63H188.016Z" fill="url(#paint2_linear_21_178)"/>
<path d="M188.016 63H187.016V64H188.016V63ZM188.016 46.704H189.016V45.704H188.016V46.704ZM171.72 46.704H170.72V47.704H171.72V46.704ZM171.72 37.212V36.212H170.72V37.212H171.72ZM188.016 37.212V38.212H189.016V37.212H188.016ZM188.016 21V20H187.016V21H188.016ZM197.508 21H198.508V20H197.508V21ZM197.508 37.212H196.508V38.212H197.508V37.212ZM213.72 37.212H214.72V36.212H213.72V37.212ZM213.72 46.704V47.704H214.72V46.704H213.72ZM197.508 46.704V45.704H196.508V46.704H197.508ZM197.508 63V64H198.508V63H197.508ZM189.016 63V46.704H187.016V63H189.016ZM188.016 45.704H171.72V47.704H188.016V45.704ZM172.72 46.704V37.212H170.72V46.704H172.72ZM171.72 38.212H188.016V36.212H171.72V38.212ZM189.016 37.212V21H187.016V37.212H189.016ZM188.016 22H197.508V20H188.016V22ZM196.508 21V37.212H198.508V21H196.508ZM197.508 38.212H213.72V36.212H197.508V38.212ZM212.72 37.212V46.704H214.72V37.212H212.72ZM213.72 45.704H197.508V47.704H213.72V45.704ZM196.508 46.704V63H198.508V46.704H196.508ZM197.508 62H188.016V64H197.508V62Z" fill="url(#paint3_radial_21_178)" fill-opacity="0.24" mask="url(#path-3-outside-2_21_178)"/>
<defs>
<linearGradient id="paint0_linear_21_178" x1="73.5793" y1="-70.1818" x2="164.474" y2="88.3972" gradientUnits="userSpaceOnUse">
<stop stop-color="#12171F"/>
<stop offset="1" stop-color="#3D4B71"/>
</linearGradient>
<radialGradient id="paint1_radial_21_178" cx="0" cy="0" r="1" gradientUnits="userSpaceOnUse" gradientTransform="translate(73 41.5) rotate(90) scale(31.5 73)">
<stop stop-color="#F5F5F5"/>
<stop offset="1" stop-color="#F5F5F5" stop-opacity="0.55"/>
</radialGradient>
<linearGradient id="paint2_linear_21_178" x1="193.222" y1="-80.1818" x2="293.708" y2="-42.3066" gradientUnits="userSpaceOnUse">
<stop stop-color="#12171F"/>
<stop offset="1" stop-color="#3D4B71"/>
</linearGradient>
<radialGradient id="paint3_radial_21_178" cx="0" cy="0" r="1" gradientUnits="userSpaceOnUse" gradientTransform="translate(193 31.5) rotate(90) scale(31.5 28)">
<stop stop-color="#F5F5F5"/>
<stop offset="1" stop-color="#F5F5F5" stop-opacity="0.55"/>
</radialGradient>
</defs>
</svg>
