<svg width="515" height="52" viewBox="0 0 515 52" fill="none" xmlns="http://www.w3.org/2000/svg">
<path d="M8.47656 24.3594H15.5859C16.6992 24.3594 17.2266 24.2812 17.7148 24.0859C18.8086 23.6367 19.6875 22.7383 19.6875 21.3906C19.6875 20.082 18.8477 19.1445 17.7148 18.6953C17.2461 18.5 16.7188 18.4023 15.5664 18.4023H8.47656V24.3594ZM8.47656 41H2.63672V13.0117H16.3477C18.7305 13.0117 20.3711 13.4609 21.7188 14.3203C23.9844 15.7266 25.4492 18.207 25.4492 21.3906C25.4492 24.457 23.9844 26.9766 21.6797 28.4219C20.3516 29.2617 18.7305 29.7305 16.3477 29.7305H8.47656V41ZM28.9648 12.9922H48.6719V18.3828H34.8242V22.9922H45.3906V28.3242H34.8242V35.6094H48.6719V41H28.9648V12.9922ZM67.4609 12.9922H74.4922L64.2969 25.1992L76.6406 41H69.4336L58.9258 27.0938V41H53.0664V12.9922H58.9258V23.5977L67.4609 12.9922ZM84.9609 12.9922H105.273V41H99.4336V18.3828H90.8008V28.8125C90.8008 32.1328 90.3125 34.6719 88.8867 36.8203C87.168 39.3984 84.5898 41 81.4453 41C79.8633 41 78.3594 40.6094 76.9922 39.8477L79.8047 34.7109C80.293 35.0039 80.8398 35.1406 81.4453 35.1406C82.5781 35.1406 83.3984 34.5938 84.0039 33.6758C84.7852 32.5039 84.9609 30.9023 84.9609 28.2656V12.9922ZM129.844 41L128.086 36.332H115.723L114.004 41H107.93L119.043 13.0117H124.824L135.918 41H129.844ZM121.934 19.8281L117.734 31.0391H126.074L121.934 19.8281ZM138.574 12.9922H141.758L153.73 26.8789L165.703 12.9922H168.887V41H163.047V23.793L153.73 34.75L144.414 23.793V41H138.574V12.9922ZM201.328 26.9961C201.328 34.8672 195.273 41 187.051 41C178.848 41 172.793 34.8672 172.793 26.9961C172.793 19.1445 178.848 12.9922 187.051 12.9922C195.273 12.9922 201.328 19.1445 201.328 26.9961ZM195.332 26.9961C195.332 22.1719 192.09 18.3633 187.051 18.3633C182.031 18.3633 178.789 22.1719 178.789 26.9961C178.789 31.8398 182.031 35.6094 187.051 35.6094C192.09 35.6094 195.332 31.8398 195.332 26.9961ZM222.969 18.4023H214.844C214.824 21.1172 214.688 23.8906 214.238 26.7617C213.789 29.6133 213.047 32.543 211.816 35.5898H222.969V18.4023ZM228.828 12.9922V35.5898H232.656V46.7617H226.816V41H208.125V46.7617H202.266V35.5898H205.566C207.109 32.7188 207.949 29.4961 208.418 26.1562C209.043 21.8008 209.023 17.25 209.121 12.9922H228.828ZM255.664 41L253.906 36.332H241.543L239.824 41H233.75L244.863 13.0117H250.645L261.738 41H255.664ZM247.754 19.8281L243.555 31.0391H251.895L247.754 19.8281ZM259.316 12.9922H283.594V18.4023H274.375V41H268.516V18.4023H259.316V12.9922ZM287.441 12.9922H307.148V18.3828H293.301V22.9922H303.867V28.3242H293.301V35.6094H307.148V41H287.441V12.9922ZM316.484 12.9922H336.797V41H330.957V18.3828H322.324V28.8125C322.324 32.1328 321.836 34.6719 320.41 36.8203C318.691 39.3984 316.113 41 312.969 41C311.387 41 309.883 40.6094 308.516 39.8477L311.328 34.7109C311.816 35.0039 312.363 35.1406 312.969 35.1406C314.102 35.1406 314.922 34.5938 315.527 33.6758C316.309 32.5039 316.484 30.9023 316.484 28.2656V12.9922ZM364.355 41H358.516V29.6914H353.242L346.621 41H339.902L346.992 29.1055L346.758 29.0078C345.273 28.5 343.965 27.6016 342.988 26.1758C342.07 24.8477 341.562 23.207 341.562 21.3906C341.562 18.1875 343.027 15.707 345.293 14.3203C346.641 13.4609 348.281 13.0117 350.664 13.0117H364.355V41ZM351.426 24.3398H358.516V18.4023H351.445C350.293 18.4023 349.766 18.4805 349.297 18.6953C348.164 19.1445 347.324 20.082 347.324 21.3906C347.324 22.7188 348.203 23.6172 349.297 24.0664C349.785 24.2812 350.312 24.3398 351.426 24.3398ZM369.629 12.9922H372.812L384.785 26.8789L396.758 12.9922H399.941V41H394.102V23.793L384.785 34.75L375.469 23.793V41H369.629V12.9922Z" fill="#FBFBFB"/>
</svg>
