<svg width="176" height="50" viewBox="0 0 176 50" fill="none" xmlns="http://www.w3.org/2000/svg">
<g filter="url(#filter0_d_362_116)">
<path d="M75.3737 20.0957L69.8708 1.18661H74.9213L77.7742 13.5772H77.9312L81.1904 1.18661H85.3083L88.5676 13.6049H88.7245L91.5867 1.18661H96.6279L91.1343 20.0957H86.7302L83.3232 8.62837H83.1755L79.7686 20.0957H75.3737ZM98.5161 20.0957V1.18661H111.701V4.89826H103.086V8.7761H111.027V12.497H103.086V16.3841H111.701V20.0957H98.5161ZM10.9184 23.1866H16.5782L21.3794 34.894H21.6009L26.4021 23.1866H32.0619V42.0957H27.6116V30.4806H27.4546L22.912 41.9757H20.0683L15.5257 30.416H15.3687V42.0957H10.9184V23.1866ZM39.0028 42.0957H34.0908L40.4708 23.1866H46.5553L52.9353 42.0957H48.0233L43.5823 27.9508H43.4346L39.0028 42.0957ZM38.3472 34.6539H48.6143V38.1255H38.3472V34.6539ZM54.9711 42.0957V23.1866H62.7822C64.1979 23.1866 65.4198 23.4421 66.4477 23.9529C67.4818 24.4577 68.2789 25.184 68.839 26.1319C69.3992 27.0737 69.6792 28.1909 69.6792 29.4835C69.6792 30.7946 69.393 31.9087 68.8206 32.8258C68.2481 33.7368 67.4356 34.4324 66.3831 34.9125C65.3305 35.3864 64.0841 35.6234 62.6437 35.6234H57.7041V32.0225H61.7943C62.4837 32.0225 63.0592 31.9333 63.5209 31.7548C63.9887 31.5701 64.3426 31.2931 64.5827 30.9238C64.8227 30.5484 64.9427 30.0682 64.9427 29.4835C64.9427 28.8987 64.8227 28.4155 64.5827 28.0339C64.3426 27.6461 63.9887 27.3568 63.5209 27.166C63.0531 26.969 62.4775 26.8706 61.7943 26.8706H59.5415V42.0957H54.9711ZM65.6167 33.4537L70.3256 42.0957H65.3398L60.7233 33.4537H65.6167ZM72.186 42.0957V23.1866H76.7563V31.1824H77.0056L83.2563 23.1866H88.6391L81.936 31.6255L88.7591 42.0957H83.2932L78.5844 34.6632L76.7563 36.9714V42.0957H72.186ZM90.4419 42.0957V23.1866H103.627V26.8983H95.0122V30.7761H102.953V34.497H95.0122V38.3841H103.627V42.0957H90.4419ZM105.87 26.8983V23.1866H121.852V26.8983H116.119V42.0957H111.613V26.8983H105.87ZM128.655 23.1866V42.0957H124.084V23.1866H128.655ZM147.617 23.1866V42.0957H143.739L136.214 31.1824H136.094V42.0957H131.524V23.1866H135.457L142.899 34.0815H143.056V23.1866H147.617ZM162.9 29.3635C162.795 28.9757 162.641 28.6341 162.438 28.3386C162.235 28.037 161.986 27.7815 161.69 27.5723C161.395 27.363 161.056 27.206 160.675 27.1014C160.293 26.9906 159.874 26.9352 159.419 26.9352C158.502 26.9352 157.708 27.1568 157.037 27.6C156.372 28.0431 155.858 28.6895 155.495 29.5389C155.132 30.3822 154.95 31.407 154.95 32.6135C154.95 33.8261 155.126 34.8601 155.476 35.7157C155.827 36.5713 156.335 37.2238 157 37.6731C157.665 38.1225 158.471 38.3471 159.419 38.3471C160.256 38.3471 160.964 38.2117 161.543 37.9409C162.127 37.6639 162.57 37.273 162.872 36.7683C163.174 36.2636 163.324 35.6696 163.324 34.9863L164.174 35.0879H159.576V31.7548H167.729V34.2569C167.729 35.9496 167.369 37.3992 166.648 38.6056C165.934 39.8121 164.949 40.7385 163.694 41.3848C162.444 42.0311 161.007 42.3542 159.382 42.3542C157.579 42.3542 155.994 41.9634 154.627 41.1816C153.261 40.3999 152.196 39.2858 151.432 37.8393C150.669 36.3867 150.288 34.6632 150.288 32.6689C150.288 31.1177 150.518 29.742 150.98 28.5417C151.442 27.3353 152.085 26.3135 152.91 25.4764C153.741 24.6393 154.701 24.0053 155.79 23.5744C156.886 23.1435 158.065 22.9281 159.327 22.9281C160.422 22.9281 161.441 23.085 162.383 23.399C163.331 23.7129 164.168 24.1561 164.894 24.7285C165.627 25.301 166.221 25.9811 166.676 26.769C167.132 27.5569 167.415 28.4217 167.525 29.3635H162.9Z" fill="url(#paint0_linear_362_116)"/>
</g>
<g filter="url(#filter1_d_362_116)">
<path d="M119.325 20H116.925L123.868 1.09091H126.231L133.175 20H130.774L125.123 4.08239H124.976L119.325 20ZM120.211 12.6136H129.888V14.6449H120.211V12.6136ZM136.12 20V1.09091H142.509C143.986 1.09091 145.199 1.34328 146.147 1.84801C147.095 2.34659 147.796 3.03291 148.252 3.90696C148.707 4.78101 148.935 5.77509 148.935 6.8892C148.935 8.00331 148.707 8.99124 148.252 9.85298C147.796 10.7147 147.098 11.3918 146.156 11.8842C145.214 12.3705 144.011 12.6136 142.546 12.6136H137.376V10.5455H142.472C143.482 10.5455 144.294 10.3977 144.91 10.1023C145.531 9.80682 145.981 9.38826 146.258 8.84659C146.541 8.29877 146.682 7.64631 146.682 6.8892C146.682 6.1321 146.541 5.47041 146.258 4.90412C145.974 4.33783 145.522 3.9008 144.9 3.59304C144.279 3.27912 143.457 3.12216 142.435 3.12216H138.41V20H136.12ZM145.02 11.5057L149.674 20H147.015L142.435 11.5057H145.02ZM152.751 20V1.09091H164.163V3.12216H155.04V9.51136H163.572V11.5426H155.04V17.9688H164.31V20H152.751Z" fill="url(#paint1_linear_362_116)"/>
</g>
<defs>
<filter id="filter0_d_362_116" x="10.9185" y="0.286645" width="164.71" height="48.9676" filterUnits="userSpaceOnUse" color-interpolation-filters="sRGB">
<feFlood flood-opacity="0" result="BackgroundImageFix"/>
<feColorMatrix in="SourceAlpha" type="matrix" values="0 0 0 0 0 0 0 0 0 0 0 0 0 0 0 0 0 0 127 0" result="hardAlpha"/>
<feOffset dx="4" dy="3"/>
<feGaussianBlur stdDeviation="1.95"/>
<feComposite in2="hardAlpha" operator="out"/>
<feColorMatrix type="matrix" values="0 0 0 0 0 0 0 0 0 0 0 0 0 0 0 0 0 0 0.05 0"/>
<feBlend mode="normal" in2="BackgroundImageFix" result="effect1_dropShadow_362_116"/>
<feBlend mode="normal" in="SourceGraphic" in2="effect1_dropShadow_362_116" result="shape"/>
</filter>
<filter id="filter1_d_362_116" x="116.925" y="0.190942" width="55.2857" height="26.7091" filterUnits="userSpaceOnUse" color-interpolation-filters="sRGB">
<feFlood flood-opacity="0" result="BackgroundImageFix"/>
<feColorMatrix in="SourceAlpha" type="matrix" values="0 0 0 0 0 0 0 0 0 0 0 0 0 0 0 0 0 0 127 0" result="hardAlpha"/>
<feOffset dx="4" dy="3"/>
<feGaussianBlur stdDeviation="1.95"/>
<feComposite in2="hardAlpha" operator="out"/>
<feColorMatrix type="matrix" values="0 0 0 0 0 0 0 0 0 0 0 0 0 0 0 0 0 0 0.05 0"/>
<feBlend mode="normal" in2="BackgroundImageFix" result="effect1_dropShadow_362_116"/>
<feBlend mode="normal" in="SourceGraphic" in2="effect1_dropShadow_362_116" result="shape"/>
</filter>
<linearGradient id="paint0_linear_362_116" x1="85.9912" y1="0.0957031" x2="79.3654" y2="53.3819" gradientUnits="userSpaceOnUse">
<stop stop-color="#6C81BD"/>
<stop offset="1" stop-color="#90CA94"/>
</linearGradient>
<linearGradient id="paint1_linear_362_116" x1="83" y1="0" x2="76.3742" y2="53.2862" gradientUnits="userSpaceOnUse">
<stop stop-color="#6C81BD"/>
<stop offset="1" stop-color="#90CA94"/>
</linearGradient>
</defs>
</svg>
