<svg width="323" height="312" viewBox="0 0 323 312" fill="none" xmlns="http://www.w3.org/2000/svg">
<path d="M215.873 271.92L215.911 271.927C203.782 277.487 167.227 292.582 121.95 281.712L121.905 281.701C109.81 278.776 60.9318 266.956 35.4905 219.927C30.4833 210.665 14.9055 178.831 23.9042 139.965L23.9042 139.965C32.2402 103.846 56.7465 83.5558 72.0112 70.9325C90.8046 55.4073 141.488 13.5692 204.418 31.3044L204.551 30.8227L204.418 31.3045C246.227 43.076 282.434 78.061 293.39 123.52C305.466 173.594 281.329 213.513 275.816 222.115C256.196 252.678 229.102 265.768 217.296 271.258L215.873 271.92Z" stroke="url(#paint0_linear_21_127)"/>
<path d="M114.01 141.752L114.011 141.752C135.135 129.848 156.36 127.322 179.374 124.605L179.374 124.605C193.837 122.886 204.817 122.828 213.316 122.783C215.648 122.771 217.794 122.76 219.773 122.715C228.929 122.51 234.676 121.603 238.683 116.352L238.683 116.352C242.8 110.945 243.523 102.969 241.853 94.9267C240.181 86.8706 236.091 78.6443 230.438 72.6555C222.735 64.4799 212.286 60.6584 203.755 57.6898C203.429 57.5764 203.106 57.4643 202.787 57.3533C198.898 56.0035 195.484 54.8181 192.932 53.4447C190.163 51.9548 188.573 50.3299 188.384 48.193L188.384 48.1897C188.247 46.7465 188.74 45.3244 189.549 44.0667C190.357 42.8097 191.46 41.7526 192.474 41.0569C195.529 38.9705 199.937 38.6918 205.248 39.8382C210.544 40.9816 216.643 43.5231 222.983 46.9406C235.66 53.7741 249.212 64.0599 259.091 73.4559C267.201 81.1815 282.588 96.1599 291.846 121.054C294.119 127.195 301.912 149.657 297.547 178.516L297.547 178.517C296.182 187.631 290.919 215.225 267.914 240.539C250.609 259.575 231.492 268.174 220.349 273.062L220.349 273.062C197.678 283.028 178.356 285.129 173.875 285.572C139.406 288.983 111.978 279.315 99.5445 274.081C86.364 268.498 64.323 258.88 46.319 236.064L46.3188 236.064C30.7399 216.346 26.763 197.668 23.3904 181.829L23.3725 181.745C22.581 178.021 21.1095 171.074 20.6373 164.709C20.401 161.523 20.418 158.516 20.8814 156.145C21.3496 153.75 22.2421 152.154 23.6215 151.547L23.622 151.547C24.6778 151.08 25.9153 151.242 27.5814 151.959C29.0829 152.605 30.833 153.657 32.9812 154.949C33.2196 155.092 33.4629 155.238 33.7113 155.387C34.1717 155.664 34.6261 155.938 35.0745 156.208C43.2305 161.121 49.4373 164.86 54.2406 167.533C59.2951 170.345 62.8483 172.009 65.5147 172.605C73.0927 174.317 78.5698 170.217 85.3943 164.016C86.3181 163.177 87.2689 162.297 88.2553 161.383C94.5907 155.518 102.399 148.289 114.01 141.752Z" stroke="url(#paint1_linear_21_127)"/>
<path d="M133.527 80.1156L133.845 80.0406L133.859 79.9617C172.611 70.9201 182.38 77.3568 184.869 79.1545L184.87 79.1548C187.913 81.3483 190.565 84.2888 192.207 87.0366C193.029 88.4112 193.585 89.7166 193.82 90.8397C194.057 91.9699 193.956 92.8451 193.566 93.4391C193.245 93.9198 192.732 94.2203 191.956 94.3552C191.166 94.4923 190.147 94.4492 188.894 94.2676C187.213 94.024 185.205 93.5483 182.891 93.0004C181.74 92.7278 180.514 92.4372 179.214 92.1485C171.444 90.4217 161.305 88.8211 150.346 91.9357C145.11 93.4127 140.935 95.8035 132.917 100.395C132.726 100.504 132.533 100.615 132.338 100.726L132.337 100.727C126.7 103.983 123.415 106.36 118.322 110.046C115.693 111.949 112.583 114.2 108.418 117.1L108.418 117.1C97.7453 124.541 91.8354 128.113 88.4635 129.758C86.775 130.582 85.7558 130.905 85.1132 131.002C84.7975 131.05 84.582 131.041 84.4279 131.015C84.2764 130.99 84.1624 130.944 84.0426 130.887C82.8141 130.3 81.7885 128.949 81.0693 126.965C80.3541 124.991 79.9691 122.46 79.9716 119.637C79.9766 113.989 81.5316 107.266 84.9594 101.669L84.9594 101.669C88.4902 95.9019 93.6855 92.1474 101.483 89.0163C109.298 85.8778 119.673 83.386 133.527 80.1156Z" stroke="url(#paint2_linear_21_127)"/>
<path d="M166.411 94.0082C160.351 98.4473 157.172 100.762 152.603 100.535C145.605 100.215 140.777 94.1834 138.473 91.3057C138.454 91.2816 138.435 91.2577 138.416 91.2341L138.809 90.931L138.774 90.8836L166.411 94.0082ZM166.411 94.0082C173.526 88.8238 177.667 85.7877 177.776 80.9897L166.411 94.0082ZM138.764 90.8707L138.763 90.8716C135.343 86.5279 133.077 81.1788 132.176 76.6345C131.723 74.3527 131.62 72.301 131.871 70.6964C132.123 69.0767 132.718 68.0137 133.56 67.5384L133.561 67.5381C134.114 67.2249 134.674 67.2149 135.386 67.4392C136.082 67.6588 136.861 68.0823 137.846 68.618C137.911 68.6531 137.976 68.6886 138.042 68.7246C140.174 69.8822 143.045 71.3851 147.3 71.8536L147.301 71.8536C152.562 72.4241 156.164 70.9955 159.278 69.7599L159.307 69.7484C162.43 68.5096 164.984 67.5152 168.351 68.6547C170.884 69.5308 173.152 71.3697 174.772 73.627C176.393 75.8864 177.338 78.5257 177.276 80.9746L177.276 80.9758C177.226 83.2069 176.247 85.0524 174.361 87.0051C172.459 88.9739 169.686 91.0012 166.116 93.6029L166.115 93.6036C160.012 98.0741 156.984 100.252 152.625 100.035L152.623 100.035C149.218 99.879 146.327 98.3131 143.989 96.4086C141.713 94.5542 139.993 92.4062 138.857 90.9871C138.825 90.9477 138.794 90.9089 138.764 90.8707Z" stroke="url(#paint3_linear_21_127)"/>
<defs>
<linearGradient id="paint0_linear_21_127" x1="-317.542" y1="66.9415" x2="-49.7255" y2="-352.929" gradientUnits="userSpaceOnUse">
<stop stop-color="#12171F"/>
<stop offset="1" stop-color="#3D4B71"/>
</linearGradient>
<linearGradient id="paint1_linear_21_127" x1="-322.898" y1="70.4311" x2="-68.9011" y2="-342.285" gradientUnits="userSpaceOnUse">
<stop stop-color="#12171F"/>
<stop offset="1" stop-color="#3D4B71"/>
</linearGradient>
<linearGradient id="paint2_linear_21_127" x1="-52.9369" y1="69.4932" x2="9.09877" y2="-57.6691" gradientUnits="userSpaceOnUse">
<stop stop-color="#12171F"/>
<stop offset="1" stop-color="#3D4B71"/>
</linearGradient>
<linearGradient id="paint3_linear_21_127" x1="70.372" y1="67.6458" x2="102.057" y2="7.21531" gradientUnits="userSpaceOnUse">
<stop stop-color="#12171F"/>
<stop offset="1" stop-color="#3D4B71"/>
</linearGradient>
</defs>
</svg>
