<svg width="319" height="337" viewBox="0 0 319 337" fill="none" xmlns="http://www.w3.org/2000/svg">
<path d="M224.824 306.23C216.04 312.994 185.639 334.46 144.711 330.327L144.711 330.326C106.679 326.514 82.6108 302.904 67.6319 288.191C49.2189 270.086 -0.455923 221.216 9.09699 150.457C15.4325 103.446 46.259 59.1704 91.2102 40.7405L91.0205 40.2779L91.2103 40.7404C140.72 20.4328 184.786 40.8072 194.325 45.536C228.225 62.3737 245.292 89.8318 252.512 101.83L253.364 103.244L253.366 103.202C260.683 115.505 281.132 152.952 276.188 203.628L276.183 203.678C274.842 217.203 269.422 271.873 224.824 306.23ZM224.824 306.23L225.129 306.627L224.824 306.23Z" stroke="url(#paint0_linear_21_183)"/>
<path d="M88.6555 42.3338C94.65 38.9682 116.63 27.2349 146.837 27.7975C156.379 27.9606 185.406 29.6831 214.522 51.0321C236.42 67.0934 247.855 86.6398 254.374 98.0153L88.6555 42.3338ZM88.6555 42.3338L88.9003 42.7698C88.9005 42.7697 88.9007 42.7696 88.9009 42.7694L88.6555 42.3338ZM271.442 229.008C267.532 244.093 260.705 269.366 239.839 292.169L239.838 292.169C221.812 311.893 203.27 318.898 187.55 324.837L187.464 324.87C187.463 324.87 187.463 324.87 187.463 324.87C183.767 326.265 176.87 328.862 170.432 330.292C167.209 331.008 164.136 331.423 161.653 331.264C159.15 331.103 157.393 330.371 156.577 328.951L156.576 328.95C155.943 327.852 155.945 326.464 156.452 324.549C156.909 322.824 157.748 320.773 158.774 318.261C158.888 317.982 159.004 317.697 159.123 317.406C159.343 316.868 159.56 316.337 159.775 315.813C163.684 306.269 166.658 299.007 168.734 293.42C170.919 287.538 172.131 283.458 172.376 280.496C173.089 272.082 168.181 266.759 160.908 260.256C159.925 259.376 158.897 258.474 157.829 257.538C150.974 251.523 142.523 244.108 134.26 232.473L134.26 232.472C119.215 211.304 113.741 188.67 107.83 164.137L107.83 164.136C104.103 148.717 102.548 136.828 101.344 127.63C101.014 125.106 100.71 122.784 100.395 120.648C98.9394 110.768 97.2344 104.695 91.3344 101.12L91.334 101.119C85.2477 97.4397 76.9963 97.8098 69.0063 100.779C61.0029 103.754 53.1597 109.37 47.8167 116.351C40.5222 125.862 38.0435 137.716 36.1727 147.384C36.1011 147.754 36.0305 148.12 35.9605 148.483C35.1116 152.887 34.3645 156.763 33.3071 159.73C32.1569 162.958 30.7044 164.924 28.5445 165.437L28.5412 165.438C27.089 165.794 25.5723 165.467 24.1773 164.773C22.7829 164.079 21.551 163.036 20.6994 162.035C18.1397 159.013 17.2533 154.258 17.7021 148.33C18.1495 142.419 19.9177 135.44 22.5466 128.077C27.8035 113.354 36.4688 97.1865 44.7246 85.1269L271.442 229.008ZM271.442 229.008C271.442 229.008 271.442 229.008 271.442 229.008L271.926 229.133L271.442 229.007C271.442 229.008 271.442 229.008 271.442 229.008Z" stroke="url(#paint1_linear_21_183)"/>
<path d="M68.6241 220.221L68.5109 219.906L68.4283 219.902C53.902 179.216 59.1414 167.678 60.6523 164.695L60.6525 164.695C62.4827 161.075 65.1296 157.774 67.7161 155.596C69.0103 154.506 70.2695 153.715 71.3851 153.298C72.5076 152.878 73.4113 152.862 74.0684 153.198C74.6051 153.477 74.9893 153.996 75.2371 154.832C75.4879 155.678 75.5825 156.796 75.5677 158.183C75.5478 160.042 75.3349 162.291 75.0899 164.878C74.9682 166.163 74.8387 167.532 74.7209 168.978C74.0156 177.639 73.7623 188.836 78.4307 200.24C80.6504 205.692 83.6585 209.864 89.4449 217.89C89.5814 218.079 89.7194 218.271 89.859 218.464L89.8601 218.466C93.9532 224.099 96.8274 227.311 101.286 232.295C103.588 234.867 106.312 237.912 109.844 242.004L109.844 242.004C118.9 252.489 123.355 258.376 125.497 261.793C126.569 263.504 127.042 264.567 127.231 265.258C127.411 265.914 127.333 266.228 127.258 266.476C126.819 267.914 125.566 269.225 123.639 270.29C121.719 271.35 119.186 272.132 116.303 272.537C110.535 273.346 103.457 272.633 97.2723 269.73L97.2723 269.73C90.8986 266.738 86.3508 261.65 82.0857 253.65C77.8124 245.634 73.852 234.752 68.6241 220.221Z" stroke="url(#paint2_linear_21_183)"/>
<path d="M78.9105 213.01L78.9117 213.011C74.9356 217.347 69.7765 220.574 65.2571 222.206C62.9875 223.026 60.9067 223.434 59.2355 223.394C57.5529 223.354 56.3836 222.867 55.7766 222.014L55.7762 222.014C55.3707 221.445 55.2822 220.82 55.4171 220.001C55.5478 219.208 55.8765 218.298 56.2884 217.157C56.3159 217.081 56.3437 217.004 56.3718 216.925C57.2635 214.451 58.4037 211.135 58.303 206.474L58.303 206.473C58.1696 200.71 56.2256 197.027 54.5385 193.831L54.5243 193.805C52.8352 190.605 51.4577 187.961 52.169 184.12C52.7225 181.233 54.3 178.502 56.3892 176.417C58.4814 174.33 61.051 172.927 63.5581 172.64L63.5594 172.64C65.8402 172.373 67.8569 173.165 70.1116 174.927C72.3836 176.704 74.834 179.416 77.978 182.907L77.9789 182.908C83.3712 188.865 86.0255 191.844 86.3998 196.624L86.4 196.626C87.0082 204.034 81.6322 209.993 78.9955 212.916C78.9668 212.948 78.9385 212.979 78.9105 213.01Z" stroke="url(#paint3_linear_21_183)"/>
<ellipse cx="161" cy="163" rx="158" ry="163" fill="url(#paint4_linear_21_183)" fill-opacity="0.46"/>
<defs>
<linearGradient id="paint0_linear_21_183" x1="116.617" y1="710.63" x2="-358.121" y2="502.399" gradientUnits="userSpaceOnUse">
<stop stop-color="#12171F"/>
<stop offset="1" stop-color="#3D4B71"/>
</linearGradient>
<linearGradient id="paint1_linear_21_183" x1="120.912" y1="715.926" x2="-343.816" y2="520.609" gradientUnits="userSpaceOnUse">
<stop stop-color="#12171F"/>
<stop offset="1" stop-color="#3D4B71"/>
</linearGradient>
<linearGradient id="paint2_linear_21_183" x1="83.1816" y1="423.678" x2="-56.721" y2="379.749" gradientUnits="userSpaceOnUse">
<stop stop-color="#12171F"/>
<stop offset="1" stop-color="#3D4B71"/>
</linearGradient>
<linearGradient id="paint3_linear_21_183" x1="64.4982" y1="290.395" x2="-2.42515" y2="267.324" gradientUnits="userSpaceOnUse">
<stop stop-color="#12171F"/>
<stop offset="1" stop-color="#3D4B71"/>
</linearGradient>
<linearGradient id="paint4_linear_21_183" x1="-279.5" y1="406.436" x2="111.309" y2="169.794" gradientUnits="userSpaceOnUse">
<stop stop-color="#D9D9D9" stop-opacity="0.43"/>
<stop offset="1" stop-color="#D9D9D9" stop-opacity="0"/>
</linearGradient>
</defs>
</svg>
