<svg width="444" height="439" viewBox="0 0 444 439" fill="none" xmlns="http://www.w3.org/2000/svg">
<path d="M288.377 82.7748C303.167 89.017 325.107 98.4802 346.612 119.662L346.613 119.663L346.691 119.74C356.265 129.208 389.359 161.932 392.557 212.249L393.056 212.218L392.557 212.249C395.581 259.737 370.174 293.046 357.18 310.081L357.131 310.145C347.582 322.652 323.856 352.806 280.241 368.018C271.954 370.901 203.1 393.585 138.104 352.281C98.4213 327.043 79.6744 290.312 70.8834 259.266C62.0918 228.218 63.2677 202.888 63.4104 200.514C63.6415 196.784 65.4934 172.988 76.1534 145.908C86.8138 118.826 106.263 88.5074 141.662 71.6454C198.06 44.7951 257.67 69.8378 288.377 82.7748Z" stroke="url(#paint0_linear_21_132)"/>
<path d="M267.97 93.8486C267.93 92.9625 268.106 92.2885 268.468 91.8043C268.95 91.1609 269.885 90.6911 271.331 90.4804C272.765 90.2714 274.621 90.3302 276.827 90.6632C281.235 91.3287 286.947 93.0747 293.284 95.8218C305.954 101.315 321.037 110.777 333.056 123.457L333.056 123.457C340.01 130.774 359.424 151.296 359.129 180.448L359.129 180.448C359.111 182.409 358.923 190.482 356.184 199.889C353.445 209.298 348.167 219.993 338.002 227.262C334.572 229.698 330.814 231.597 327.818 232.729C326.317 233.296 325.026 233.663 324.072 233.813C323.592 233.889 323.223 233.906 322.967 233.877C322.864 233.865 322.795 233.849 322.75 233.834C322.796 233.754 322.872 233.648 322.993 233.512C323.34 233.119 323.931 232.614 324.741 231.977C325.301 231.538 325.961 231.039 326.698 230.482C328.053 229.458 329.667 228.239 331.383 226.837C336.711 222.487 343.24 216.217 347.27 207.653L347.27 207.652C354.139 193.034 354.097 170.956 342.863 155.738L342.863 155.737C336.505 147.13 329.237 144.35 320.726 141.178L320.4 141.056C311.979 137.918 302.275 134.302 290.756 124.283L290.756 124.283C284.468 118.821 278 111.773 273.562 105.497C271.34 102.357 269.643 99.4319 268.725 97.0101C268.266 95.7989 268.01 94.736 267.97 93.8486Z" stroke="url(#paint1_linear_21_132)"/>
<path d="M231.927 198.936L232.008 198.883C228.872 193.849 227.777 187.219 228.38 179.909C229 172.386 231.419 164.1 235.316 155.992C243.106 139.783 256.847 124.201 274.106 116.828L274.106 116.828C287.717 111.027 300.732 111.523 310.651 112.563C312.358 112.742 313.965 112.936 315.465 113.118C318.349 113.466 320.837 113.766 322.88 113.821C324.427 113.863 325.657 113.76 326.57 113.455C327.463 113.157 328.022 112.679 328.308 111.961L328.309 111.959C328.692 111.012 328.567 109.705 327.829 108.04C327.097 106.386 325.795 104.458 323.964 102.333C320.305 98.0846 314.597 93.1183 307.344 88.0596C292.839 77.9443 272.221 67.5077 249.616 61.7294L249.616 61.7294C231.5 57.0915 196.943 48.3064 165.53 64.573L165.53 64.5731C156.453 69.2706 151.485 74.0615 144.369 84.7937C140.76 90.2362 136.617 97.1779 131.123 106.382C125.734 115.411 119.045 126.616 110.287 140.719L110.287 140.719C102.337 153.514 95.4212 164.282 89.5302 173.453C81.5297 185.909 75.4198 195.421 71.1778 203.073C63.8131 216.356 62.2173 223.8 65.9682 231.13C68.7889 236.64 73.7619 240.409 81.6924 243.791C89.6343 247.177 100.461 250.142 114.911 254.091M231.927 198.936L114.779 254.573M231.927 198.936L232.203 199.355C235.732 204.718 242.015 208.681 250.262 212.146C258.517 215.614 268.824 218.617 280.478 222.01M231.927 198.936L280.618 221.53M114.911 254.091L114.779 254.573M114.911 254.091C114.911 254.091 114.911 254.091 114.911 254.091L114.779 254.573M114.911 254.091C134.665 259.482 149.822 263.609 168.305 260.773M114.779 254.573C134.521 259.961 149.778 264.122 168.382 261.267M168.305 260.773L168.382 261.267M168.305 260.773C185.763 258.07 195.434 250.8 203.899 244.354L204.155 244.159C212.522 237.787 219.844 232.21 232.414 233.002C245.526 233.829 254.451 240.978 262.406 247.348C262.552 247.466 262.699 247.583 262.845 247.7C270.962 254.198 278.032 259.651 287.672 257.262L287.673 257.261C293.789 255.759 299.264 251.521 302.864 246.674C304.661 244.254 305.978 241.698 306.674 239.279C307.371 236.857 307.435 234.608 306.778 232.772M168.305 260.773C168.306 260.773 168.306 260.773 168.306 260.773L168.382 261.267M168.382 261.267L306.778 232.772M306.778 232.772C306.778 232.772 306.778 232.772 306.778 232.772L307.249 232.602M306.778 232.772L287.792 257.747C300.297 254.675 310.063 240.468 307.249 232.602M306.778 232.772C306.778 232.771 306.778 232.771 306.778 232.771L307.249 232.602M306.778 232.772C305.795 230.052 303.3 228.499 298.901 227.052C296.712 226.331 294.094 225.65 291.019 224.857L290.646 224.761C287.666 223.992 284.277 223.118 280.478 222.01M307.249 232.602C305.624 228.107 300.213 226.712 290.772 224.277C287.792 223.508 284.409 222.636 280.618 221.53M280.618 221.53L280.478 222.01M280.618 221.53L280.477 222.01C280.478 222.01 280.478 222.01 280.478 222.01" stroke="url(#paint2_linear_21_132)"/>
<defs>
<linearGradient id="paint0_linear_21_132" x1="496.409" y1="-258.304" x2="644.14" y2="58.9303" gradientUnits="userSpaceOnUse">
<stop stop-color="#3D4B71"/>
<stop offset="1" stop-color="#12171F"/>
</linearGradient>
<linearGradient id="paint1_linear_21_132" x1="398.513" y1="-2.22354" x2="527.851" y2="200.459" gradientUnits="userSpaceOnUse">
<stop stop-color="#12171F"/>
<stop offset="1" stop-color="#3D4B71"/>
</linearGradient>
<linearGradient id="paint2_linear_21_132" x1="434.293" y1="-205.989" x2="706.546" y2="125.514" gradientUnits="userSpaceOnUse">
<stop stop-color="#12171F"/>
<stop offset="1" stop-color="#3D4B71"/>
</linearGradient>
</defs>
</svg>
