<svg width="615" height="588" viewBox="0 0 615 588" fill="none" xmlns="http://www.w3.org/2000/svg">
<path d="M313.604 92.7352C334.933 91.5598 366.728 90.0171 405.245 100.397L405.383 100.435C422.545 105.091 481.887 121.189 516.728 169.822C549.592 215.683 540.125 261.615 535.283 285.107L535.263 285.202C535.263 285.202 535.263 285.202 535.263 285.202C531.698 302.449 522.272 344.409 480.113 381.426C472.112 388.44 404.703 445.593 302.322 436.908C177.272 426.263 122.922 327.722 120.32 322.822C118.29 318.981 105.802 294.318 101.693 261.973C97.5839 229.634 101.853 189.659 133.28 155.113C158.323 127.595 192.331 112.611 225.636 104.201C258.94 95.7907 291.495 93.9657 313.604 92.7352Z" stroke="url(#paint0_linear_21_188)"/>
<path d="M296.189 114.042C295.588 113.168 295.388 112.412 295.514 111.762C295.685 110.885 296.504 109.935 298.11 108.984C299.695 108.047 301.943 107.17 304.767 106.395C310.409 104.846 318.257 103.726 327.45 103.295C345.835 102.433 369.523 104.325 391.577 110.969L391.578 110.969C404.321 114.793 439.971 125.568 457.625 154.832L457.625 154.832C458.814 156.8 463.572 164.948 466.138 175.701C468.704 186.453 469.067 199.755 461.543 212.092C458.992 216.241 455.722 220.02 452.874 222.654C451.449 223.972 450.143 224.991 449.097 225.626C448.573 225.944 448.132 226.154 447.786 226.262C447.485 226.356 447.319 226.352 447.243 226.335C447.24 226.238 447.259 226.079 447.331 225.838C447.499 225.274 447.885 224.475 448.45 223.433C448.84 222.714 449.313 221.886 449.84 220.962C450.809 219.262 451.963 217.24 453.127 214.982C456.735 207.978 460.585 198.451 460.063 187.882L460.063 187.881C459.159 169.834 445.479 147.87 422.904 138.346L422.904 138.346C410.15 132.969 399.916 133.826 387.907 134.92L387.445 134.963C375.555 136.047 361.824 137.3 341.993 133.061L341.993 133.061C331.178 130.756 319.173 126.957 310.042 122.91C305.473 120.886 301.648 118.81 299.054 116.842C297.756 115.857 296.789 114.916 296.189 114.042Z" stroke="url(#paint1_linear_21_188)"/>
<path d="M296.273 192.398C297.056 212.203 305.076 229.898 318.823 236.828L318.761 236.92L319.284 237.171C326.701 240.725 336.507 241.536 348.372 240.867C360.246 240.196 374.26 238.036 390.124 235.587C395.292 234.792 399.831 233.968 403.826 233.244L404.327 233.153C408.446 232.406 411.967 231.774 415.006 231.395C421.11 230.636 425.117 230.925 428.03 233.204C431.905 236.256 433.27 242.394 432.004 249.046C430.744 255.67 426.893 262.648 420.569 267.226L420.568 267.227C410.572 274.495 398.735 272.565 385.153 270.148C384.914 270.106 384.674 270.063 384.433 270.02C371.097 267.644 356.212 264.993 340.28 270.705L340.449 271.176L340.28 270.705C332.584 273.466 327.435 277.171 323.45 281.546C319.553 285.825 316.781 290.734 313.833 295.954L313.662 296.257C307.641 306.918 300.694 319.027 281.709 330.478C261.586 342.579 241.092 346.054 214.432 350.562C194.932 353.854 180.294 356.318 168.803 356.915C157.318 357.513 149.054 356.239 142.266 352.121C137.731 349.368 134.825 345.927 133.101 341.097C131.368 336.24 130.821 329.953 131.074 321.493C131.366 311.739 132.717 299.194 134.485 282.766C135.787 270.669 137.316 256.465 138.816 239.72L138.817 239.72C140.462 221.295 141.452 206.768 142.25 195.058L142.275 194.698C143.077 182.921 143.688 174.026 144.584 166.875C145.479 159.728 146.657 154.351 148.582 149.61C150.505 144.874 153.184 140.747 157.113 136.113L157.113 136.113C170.658 120.132 189.005 109.996 207.019 103.3C225.032 96.605 242.677 93.3624 254.797 91.1443L254.797 91.1443C285.096 85.5898 315.921 85.6818 339.321 88.5164C351.023 89.934 360.85 92.0353 367.817 94.45C371.303 95.6582 374.05 96.9371 375.955 98.2336C377.882 99.5455 378.841 100.802 378.972 101.933L378.972 101.936C379.075 102.776 378.722 103.534 377.829 104.297C376.921 105.072 375.511 105.8 373.648 106.536C371.192 107.507 368.052 108.457 364.424 109.555C362.542 110.125 360.529 110.734 358.411 111.407C346.068 115.327 330.417 121.335 317.936 133.914L317.935 133.914C302.107 149.894 295.478 172.316 296.273 192.398Z" stroke="url(#paint2_linear_21_188)"/>
<ellipse cx="307.287" cy="293.661" rx="230.84" ry="200.181" transform="rotate(156.828 307.287 293.661)" fill="url(#paint3_linear_21_188)" fill-opacity="0.54"/>
<defs>
<linearGradient id="paint0_linear_21_188" x1="349.014" y1="-351.57" x2="669.119" y2="-54.9855" gradientUnits="userSpaceOnUse">
<stop stop-color="#3D4B71"/>
<stop offset="1" stop-color="#12171F"/>
</linearGradient>
<linearGradient id="paint1_linear_21_188" x1="391.313" y1="-47.1187" x2="643.372" y2="127.508" gradientUnits="userSpaceOnUse">
<stop stop-color="#12171F"/>
<stop offset="1" stop-color="#3D4B71"/>
</linearGradient>
<linearGradient id="paint2_linear_21_188" x1="307.9" y1="-268.295" x2="803.776" y2="-14.7486" gradientUnits="userSpaceOnUse">
<stop stop-color="#12171F"/>
<stop offset="1" stop-color="#3D4B71"/>
</linearGradient>
<linearGradient id="paint3_linear_21_188" x1="-336.29" y1="592.626" x2="177.451" y2="222.549" gradientUnits="userSpaceOnUse">
<stop stop-color="#D9D9D9" stop-opacity="0.43"/>
<stop offset="1" stop-color="#D9D9D9" stop-opacity="0"/>
</linearGradient>
</defs>
</svg>
