<svg width="493" height="502" viewBox="0 0 493 502" fill="none" xmlns="http://www.w3.org/2000/svg">
<path d="M75.5018 287.769L75.5247 287.716L75.843 289.254C79.4434 306.64 88.3599 346.718 122.823 382.331C132.522 392.338 177.996 436.874 248.284 436.486C312.089 436.143 369.871 398.988 398.574 347.135L399.012 347.375L398.574 347.135C441.804 269.084 402.066 188.69 387.339 158.916C375.356 134.721 356.064 95.8187 310.685 73.4523L310.684 73.4521C261.866 49.3479 214.709 60.0912 200.844 63.8467C130.423 82.9403 99.4487 144.164 91.7884 159.305L91.7579 159.366L75.5018 287.769ZM75.5018 287.769C71.9842 270.507 62.8647 216.711 91.7575 159.366L75.5018 287.769Z" stroke="url(#paint0_linear_21_163)"/>
<path d="M280.274 192.56L280.274 192.56C275.22 175.09 268.056 162.455 262.251 152.218C261.347 150.624 260.477 149.089 259.652 147.603C253.552 136.605 249.876 128.138 254.468 118.712L280.274 192.56ZM280.274 192.56C289.484 224.344 286.202 253.329 282.622 284.709L282.622 284.709M280.274 192.56L282.622 284.709M282.622 284.709C280.386 304.446 277.032 319.045 274.438 330.335C273.726 333.433 273.072 336.281 272.513 338.918C269.927 351.133 269.359 358.959 275.016 365.842L275.016 365.843M282.622 284.709L275.016 365.843M275.016 365.843C280.857 372.936 291.151 376.377 302.318 376.672C313.497 376.968 325.655 374.117 335.335 368.504C348.544 360.861 356.856 348.228 363.46 337.834C363.713 337.436 363.963 337.041 364.211 336.65C367.213 331.917 369.859 327.744 372.489 324.775C375.34 321.555 378.05 319.891 381.039 320.322L381.043 320.322M275.016 365.843L381.043 320.322M381.043 320.322C383.053 320.599 384.821 321.724 386.255 323.208C387.689 324.692 388.76 326.506 389.374 328.089C391.215 332.864 390.184 338.856 386.997 345.561C383.816 352.253 378.528 359.566 372.008 366.917C358.971 381.618 341.079 396.398 325.517 406.579C312.729 414.932 288.023 430.689 252.06 435.205C243.192 436.305 210.919 439.636 173.948 424.817L173.947 424.817M381.043 320.322L173.947 424.817M173.947 424.817C162.266 420.155 127.259 404.539 100.825 366.07C80.9491 337.134 75.5028 309.052 72.4957 292.737L72.4956 292.737M173.947 424.817L72.4956 292.737M72.4956 292.737C66.3461 259.519 69.5939 233.205 70.406 227.112C76.6477 180.272 98.0572 146.87 108.893 131.995C120.419 116.246 140.084 89.9715 176.023 73.1867L176.024 73.1866M72.4956 292.737L176.024 73.1866M176.024 73.1866C207.088 58.6545 233.147 59.2102 255.217 59.6808L255.34 59.6834C260.526 59.7958 270.215 60.0124 278.822 61.3756C283.129 62.0577 287.131 63.0221 290.154 64.387C293.2 65.7622 295.111 67.4788 295.503 69.5897L295.503 69.5902M176.024 73.1866L295.503 69.5902M295.503 69.5902C295.806 71.2118 295.169 72.856 293.687 74.8559C292.353 76.6569 290.402 78.6601 288.021 81.104C287.755 81.3765 287.484 81.6545 287.208 81.9383C286.698 82.4615 286.194 82.9778 285.696 83.4874M295.503 69.5902L285.696 83.4874M285.696 83.4874C276.63 92.7771 269.733 99.8432 264.689 105.38M285.696 83.4874L264.689 105.38M264.689 105.38C259.378 111.209 256.079 115.386 254.468 118.711L264.689 105.38Z" stroke="url(#paint1_linear_21_163)"/>
<path d="M355.967 237.749L355.967 238.075L356.068 238.119C355.982 292.481 344.373 303.512 341.149 306.307L341.149 306.308C337.27 309.676 332.519 312.29 328.336 313.618C326.244 314.283 324.317 314.618 322.726 314.579C321.129 314.54 319.943 314.127 319.23 313.374C318.648 312.752 318.402 311.923 318.468 310.817C318.534 309.698 318.918 308.338 319.552 306.726C320.403 304.564 321.667 302.036 323.119 299.133C323.84 297.692 324.606 296.159 325.391 294.533C330.105 284.769 335.378 271.85 334.669 256.384C334.345 248.997 332.483 242.732 328.889 230.642C328.805 230.361 328.721 230.077 328.635 229.789L328.635 229.787C326.077 221.3 323.954 216.212 320.656 208.309C318.952 204.227 316.936 199.394 314.384 192.954L314.384 192.954C307.843 176.469 304.945 167.502 303.812 162.5C303.245 159.996 303.128 158.522 303.203 157.611C303.239 157.162 303.322 156.86 303.413 156.643C303.504 156.428 303.612 156.276 303.73 156.128C304.935 154.628 307.103 153.678 309.983 153.341C312.852 153.005 316.352 153.288 320.112 154.176C327.632 155.952 336.097 160.129 342.48 166.451L342.48 166.451C349.066 172.973 352.437 181.079 354.16 192.426C355.887 203.792 355.953 218.351 355.967 237.749Z" stroke="url(#paint2_linear_21_163)"/>
<path d="M339.802 241.176L339.801 241.174C346.66 237.98 354.495 236.639 360.833 236.862C364.015 236.975 366.792 237.48 368.869 238.325C370.96 239.174 372.247 240.325 372.637 241.669L372.637 241.67C372.898 242.564 372.717 243.362 372.18 244.265C371.662 245.136 370.846 246.05 369.833 247.183C369.765 247.26 369.695 247.338 369.625 247.417C367.427 249.879 364.556 253.198 362.618 258.663L362.618 258.664C360.234 265.424 360.999 270.611 361.666 275.127L361.671 275.164C362.339 279.691 362.876 283.453 360.273 287.628C358.296 290.752 355.116 293.21 351.586 294.666C348.054 296.124 344.216 296.561 340.939 295.703L340.938 295.703C337.934 294.924 335.759 293.01 333.742 289.875C331.713 286.721 329.882 282.392 327.547 276.848L327.547 276.847C323.528 267.372 321.549 262.609 323.219 256.82L323.219 256.818C324.503 252.298 327.515 248.921 330.79 246.4C333.977 243.947 337.379 242.329 339.616 241.265C339.679 241.235 339.741 241.205 339.802 241.176Z" stroke="url(#paint3_linear_21_163)"/>
<defs>
<linearGradient id="paint0_linear_21_163" x1="514.098" y1="-356.62" x2="987.567" y2="129.814" gradientUnits="userSpaceOnUse">
<stop stop-color="#12171F"/>
<stop offset="1" stop-color="#3D4B71"/>
</linearGradient>
<linearGradient id="paint1_linear_21_163" x1="511.14" y1="-364.815" x2="979.432" y2="101.048" gradientUnits="userSpaceOnUse">
<stop stop-color="#12171F"/>
<stop offset="1" stop-color="#3D4B71"/>
</linearGradient>
<linearGradient id="paint2_linear_21_163" x1="428.097" y1="-6.33614" x2="577.448" y2="115.676" gradientUnits="userSpaceOnUse">
<stop stop-color="#12171F"/>
<stop offset="1" stop-color="#3D4B71"/>
</linearGradient>
<linearGradient id="paint3_linear_21_163" x1="392.048" y1="157.848" x2="462.335" y2="218.756" gradientUnits="userSpaceOnUse">
<stop stop-color="#12171F"/>
<stop offset="1" stop-color="#3D4B71"/>
</linearGradient>
</defs>
</svg>
