<svg width="460" height="104" viewBox="0 0 460 104" fill="none" xmlns="http://www.w3.org/2000/svg">
<path d="M2.81238 12.9727H25.3124V41H21.7968V16.2539H6.30847V41H2.81238V12.9727ZM57.9686 26.9766C57.9686 34.9258 51.8944 41 43.7694 41C35.6639 41 29.5702 34.9258 29.5702 26.9766C29.5702 19.0664 35.6639 12.9727 43.7694 12.9727C51.8944 12.9727 57.9686 19.0664 57.9686 26.9766ZM54.4335 26.9766C54.4335 20.8828 49.9803 16.2734 43.7694 16.2734C37.5585 16.2734 33.1053 20.8828 33.1053 26.9766C33.1053 33.0898 37.5585 37.6992 43.7694 37.6992C49.9803 37.6992 54.4335 33.0898 54.4335 26.9766ZM78.7499 12.9727H82.2264V41H78.7499V29.2812C76.2499 30.1797 73.6327 30.8438 70.8397 30.8438C67.1288 30.8438 64.2968 29.6523 62.7733 27.0742C61.8553 25.5898 61.5428 23.8516 61.5428 21.4883V12.9727H65.0194V21.8789C65.0194 25.8242 67.0897 27.582 71.2303 27.582C73.7499 27.582 76.1522 26.9375 78.7499 25.9023V12.9727ZM87.8514 12.9727H106.387V16.2344H91.328V24.0078H103.183V27.2305H91.328V37.7578H106.387V41H87.8514V12.9727ZM110.937 12.9727H112.793L125.078 28.2852L137.363 12.9727H139.199V41H135.723V19.9062L125.058 33.3438L114.433 19.9062V41H110.937V12.9727ZM143.183 12.9922H147.109L155.488 28.8125L163.691 12.9922H167.598L156.269 34.3984C155.137 36.5469 154.453 37.7773 153.359 38.8711C152.07 40.1797 150.449 41.0195 148.379 41.0195C146.816 41.0195 145.254 40.5703 143.906 39.6523L145.664 36.6445C146.504 37.2305 147.441 37.5234 148.398 37.5234C150.449 37.5234 151.445 36.1953 152.5 34.2227C152.5 34.2031 153.574 32.2305 153.574 32.2305L143.183 12.9922ZM6.30847 76.7305H13.1835C14.4725 76.7305 15.1561 76.5938 15.7811 76.3398C17.3436 75.6953 18.4374 74.2891 18.4374 72.4336C18.4374 70.5781 17.3436 69.2109 15.7811 68.5469C15.1757 68.2734 14.4921 68.1562 13.1639 68.1562H6.30847V76.7305ZM6.30847 89.7773H14.6874C16.1522 89.7773 16.9139 89.6211 17.5975 89.3477C19.3944 88.625 20.6639 86.9844 20.6639 84.7969C20.6639 82.6484 19.3944 80.9883 17.5975 80.2461C16.9139 79.9727 16.1522 79.8359 14.6874 79.8359H6.30847V89.7773ZM2.81238 93V64.9922H13.5155C15.371 64.9922 16.5038 65.2461 17.4999 65.6953C20.1171 66.8672 21.8163 69.3867 21.8163 72.4922C21.8163 74.6406 20.8593 76.5156 19.2186 77.7656C22.1483 78.918 24.121 81.5938 24.121 84.8945C24.121 88.2539 22.246 91.0078 19.4139 92.2383C18.3593 92.7266 17.1678 93 15.1952 93H2.81238ZM56.5428 64.9922V93H53.0663V64.9922H56.5428ZM46.035 84.9727C46.035 82.8828 44.8241 81.2812 43.1053 80.5977C42.4413 80.3047 41.7186 80.1875 40.3124 80.1875H32.0116V89.7383H40.3124C41.7186 89.7383 42.4413 89.582 43.1053 89.3086C44.8241 88.5859 46.035 87.043 46.035 84.9727ZM49.4725 84.9727C49.4725 88.2734 47.6952 90.9492 44.9803 92.1602C43.8866 92.707 42.6561 93 40.6835 93H28.5155V64.9922H32.0116V76.9453H40.6835C42.6561 76.9453 43.8671 77.2383 44.9608 77.7656C47.6952 78.9961 49.4725 81.7109 49.4725 84.9727ZM83.1444 84.9727C83.1444 88.2734 81.3671 90.9492 78.6522 92.1602C77.5585 92.707 76.328 93 74.3553 93H62.1874V64.9727H80.6835V68.2539H65.6835V76.9453H74.3553C76.328 76.9453 77.5389 77.2383 78.6327 77.7656C81.3671 78.9961 83.1444 81.7109 83.1444 84.9727ZM79.7069 84.9727C79.7069 82.8828 78.496 81.2812 76.7772 80.5977C76.1132 80.3047 75.3905 80.1875 73.9843 80.1875H65.6835V89.7383H73.9843C75.3905 89.7383 76.1132 89.582 76.7772 89.3086C78.496 88.5859 79.7069 87.043 79.7069 84.9727ZM107.07 93V71.5742L89.3944 93H87.5389V64.9922H91.0155V86.3789C96.9139 79.25 102.812 72.1211 108.691 64.9922H110.547V93H107.07ZM119.687 77.2188H128.32C129.668 77.2188 130.371 77.0625 131.016 76.8086C132.617 76.125 133.75 74.6797 133.75 72.7461C133.75 70.8125 132.617 69.3477 131.016 68.6836C130.391 68.4102 129.668 68.2734 128.301 68.2734H119.687V77.2188ZM119.687 93H116.211V64.9922H128.691C130.625 64.9922 131.836 65.2852 132.891 65.793C135.508 67.0039 137.207 69.5625 137.207 72.7266C137.207 75.832 135.508 78.4102 132.871 79.6406C131.836 80.1484 130.625 80.4414 128.691 80.4414H119.687V93ZM158.867 93L156.543 87.2578H142.226L139.922 93H136.23L147.695 64.9922H151.113L162.539 93H158.867ZM149.414 69.3086L143.516 84.0156H155.254L149.414 69.3086ZM201.582 78.9766C201.582 86.9258 195.488 93 187.383 93C179.805 93 174.023 87.7461 173.262 80.5977H169.238V93H165.742V64.9727H169.238V77.3164H173.262C174.043 70.2266 179.824 64.9727 187.383 64.9727C195.488 64.9727 201.582 71.0664 201.582 78.9766ZM198.047 78.9766C198.047 72.8828 193.594 68.2734 187.383 68.2734C181.172 68.2734 176.699 72.8828 176.699 78.9766C176.699 85.0898 181.172 89.6992 187.383 89.6992C193.594 89.6992 198.047 85.0898 198.047 78.9766ZM202.91 64.9727H225.957V68.2539H216.172V93H212.676V68.2539H202.91V64.9727ZM259.57 64.9727H263.066V93H259.57V79.3086H244.082V93H240.586V64.9727H244.082V76.0469H259.57V64.9727ZM288.906 93L286.582 87.2578H272.266L269.961 93H266.269L277.734 64.9922H281.152L292.578 93H288.906ZM279.453 69.3086L273.555 84.0156H285.293L279.453 69.3086ZM320.957 74.6211L317.676 75.6953C316.308 71.2031 312.441 68.2539 307.441 68.2539C301.269 68.2539 296.777 72.8633 296.777 78.9766C296.777 85.0312 301.25 89.6992 307.441 89.6992C312.48 89.6992 316.348 86.7305 317.695 82.1211L321.035 83.1562C319.316 88.9961 313.965 93 307.441 93C299.473 93 293.242 86.9844 293.242 78.9766C293.242 71.0664 299.375 64.9727 307.441 64.9727C313.848 64.9727 319.16 68.7422 320.957 74.6211ZM345.058 89.0742V93H341.113V89.0742H345.058ZM344.687 86.7109H341.484C341.504 82.2773 342.773 80.6172 345.371 78.4883C347.187 77.0039 349.023 75.6367 349.023 73.0781C349.023 70.3242 346.738 68.2344 343.379 68.2344C339.375 68.2344 337.461 71.0859 337.402 74.6211H333.926C334.043 69.1523 337.305 64.9727 343.437 64.9727C348.808 64.9727 352.5 68.4297 352.5 73.0977C352.5 76.5156 350.527 78.3125 348.379 80.0508C345.84 82.1016 344.707 82.9805 344.687 86.7109Z" fill="#FBFBFB"/>
<path d="M203.371 32.4062C203.371 35.668 201.887 38.207 199.602 39.6719C198.234 40.5312 196.555 41 194.152 41H180.637V12.9922H200.754V18.3828H186.477V23.8516H194.152C196.555 23.8516 198.215 24.3203 199.562 25.1992C201.887 26.6641 203.371 29.2617 203.371 32.4062ZM197.609 32.4062C197.609 30.9609 196.711 29.9844 195.578 29.4961C195.09 29.2812 194.543 29.2031 193.41 29.2031H186.477V35.6484H193.391C194.562 35.6484 195.109 35.5312 195.578 35.3164C196.75 34.8281 197.609 33.8125 197.609 32.4062ZM212.102 12.9922H232.414V41H226.574V18.3828H217.941V28.8125C217.941 32.1328 217.453 34.6719 216.027 36.8203C214.309 39.3984 211.73 41 208.586 41C207.004 41 205.5 40.6094 204.133 39.8477L206.945 34.7109C207.434 35.0039 207.98 35.1406 208.586 35.1406C209.719 35.1406 210.539 34.5938 211.145 33.6758C211.926 32.5039 212.102 30.9023 212.102 28.2656V12.9922ZM264.875 26.9961C264.875 34.8672 258.82 41 250.598 41C242.395 41 236.34 34.8672 236.34 26.9961C236.34 19.1445 242.395 12.9922 250.598 12.9922C258.82 12.9922 264.875 19.1445 264.875 26.9961ZM258.879 26.9961C258.879 22.1719 255.637 18.3633 250.598 18.3633C245.578 18.3633 242.336 22.1719 242.336 26.9961C242.336 31.8398 245.578 35.6094 250.598 35.6094C255.637 35.6094 258.879 31.8398 258.879 26.9961ZM274.66 41H268.801V12.9922H288.508V18.4023H274.66V41ZM292.395 12.9922H312.102V18.3828H298.254V22.9922H308.82V28.3242H298.254V35.6094H312.102V41H292.395V12.9922ZM322.336 24.3594H329.445C330.559 24.3594 331.086 24.2812 331.574 24.0859C332.668 23.6367 333.547 22.7383 333.547 21.3906C333.547 20.082 332.707 19.1445 331.574 18.6953C331.105 18.5 330.578 18.4023 329.426 18.4023H322.336V24.3594ZM322.336 41H316.496V13.0117H330.207C332.59 13.0117 334.23 13.4609 335.578 14.3203C337.844 15.7266 339.309 18.207 339.309 21.3906C339.309 24.457 337.844 26.9766 335.539 28.4219C334.211 29.2617 332.59 29.7305 330.207 29.7305H322.336V41ZM374.719 13.0117V41H368.879V13.0117H374.719ZM359.797 32.4062C359.797 30.9609 358.898 29.9844 357.766 29.4961C357.277 29.2812 356.73 29.2031 355.598 29.2031H348.664V35.6484H355.578C356.75 35.6484 357.297 35.5312 357.766 35.3164C358.938 34.8281 359.797 33.8125 359.797 32.4062ZM365.559 32.4062C365.559 35.668 364.074 38.207 361.789 39.6719C360.422 40.5312 358.742 41 356.34 41H342.824V13.0117H348.664V23.8516H356.34C358.742 23.8516 360.402 24.3203 361.75 25.1992C364.074 26.6641 365.559 29.2617 365.559 32.4062Z" fill="#FBFBFB"/>
</svg>
