<svg width="28" height="46" viewBox="0 0 28 46" fill="none" xmlns="http://www.w3.org/2000/svg">
<path d="M27.52 25.4874C27.63 25.166 27.7557 24.8292 27.8186 24.5078C28.2742 22.5025 27.8814 20.3442 26.5302 18.5226L15.2178 3.33779C12.594 -0.182885 7.40916 -1.0554 3.62266 1.37846C-0.148126 3.81232 -1.09082 8.63411 1.53302 12.1548L9.59308 22.977L1.48588 33.8452C-1.13796 37.3659 -0.195261 42.1877 3.59124 44.6215C7.36203 47.0554 12.5626 46.1829 15.1707 42.6622L26.4831 27.4774C26.8759 26.9416 27.1744 26.3599 27.4101 25.7783C27.4572 25.6864 27.4729 25.5793 27.5043 25.4874H27.52Z" fill="url(#paint0_linear_314_3)"/>
<defs>
<linearGradient id="paint0_linear_314_3" x1="14" y1="0" x2="-21.5403" y2="36.6824" gradientUnits="userSpaceOnUse">
<stop stop-color="#6C81BD"/>
<stop offset="1" stop-color="#90CA94"/>
</linearGradient>
</defs>
</svg>
