<svg width="28" height="46" viewBox="0 0 28 46" fill="none" xmlns="http://www.w3.org/2000/svg">
<path d="M0.479967 20.5126C0.369986 20.834 0.244292 21.1708 0.181446 21.4922C-0.274191 23.4975 0.118601 25.6558 1.4698 27.4774L12.7822 42.6622C15.406 46.1829 20.5908 47.0554 24.3773 44.6215C28.1481 42.1877 29.0908 37.3659 26.467 33.8452L18.4069 23.023L26.5141 12.1548C29.138 8.63411 28.1953 3.81232 24.4088 1.37846C20.638 -1.0554 15.4374 -0.182885 12.8293 3.33779L1.51693 18.5226C1.12414 19.0584 0.825623 19.64 0.589949 20.2217C0.542813 20.3136 0.527102 20.4207 0.49568 20.5126L0.479967 20.5126Z" fill="url(#paint0_linear_314_4)"/>
<defs>
<linearGradient id="paint0_linear_314_4" x1="14" y1="46" x2="49.5403" y2="9.31759" gradientUnits="userSpaceOnUse">
<stop stop-color="#6C81BD"/>
<stop offset="1" stop-color="#90CA94"/>
</linearGradient>
</defs>
</svg>
