<svg width="832" height="154" viewBox="0 0 832 154" fill="none" xmlns="http://www.w3.org/2000/svg">
<path d="M473.257 35.6387H488.364C490.73 35.6387 491.851 35.4727 492.888 35.0576C495.213 34.103 497.08 32.1938 497.08 29.3301C497.08 26.5493 495.296 24.5571 492.888 23.6025C491.892 23.1875 490.772 22.98 488.323 22.98H473.257V35.6387ZM473.257 71H460.847V11.5249H489.983C495.047 11.5249 498.533 12.4795 501.397 14.3057C506.211 17.2939 509.324 22.5649 509.324 29.3301C509.324 35.8462 506.211 41.2002 501.314 44.2715C498.491 46.0562 495.047 47.0522 489.983 47.0522H473.257V71ZM553.98 71L550.245 61.0806H523.973L520.321 71H507.413L531.029 11.5249H543.314L566.888 71H553.98ZM537.171 26.0098L528.248 49.833H545.97L537.171 26.0098ZM622.543 52.7383C622.543 59.6694 619.389 65.0649 614.533 68.1777C611.628 70.0039 608.058 71 602.953 71H574.233V11.4834H616.982V22.9385H586.642V34.5596H602.953C608.058 34.5596 611.586 35.5557 614.45 37.4233C619.389 40.5361 622.543 46.0562 622.543 52.7383ZM610.3 52.7383C610.3 49.667 608.39 47.5918 605.983 46.5542C604.946 46.0977 603.784 45.9316 601.376 45.9316H586.642V59.6279H601.335C603.825 59.6279 604.987 59.3789 605.983 58.9224C608.473 57.8848 610.3 55.7266 610.3 52.7383ZM690.525 41.2417C690.525 57.9678 677.659 71 660.186 71C642.754 71 629.888 57.9678 629.888 41.2417C629.888 24.5571 642.754 11.4834 660.186 11.4834C677.659 11.4834 690.525 24.5571 690.525 41.2417ZM677.783 41.2417C677.783 30.9902 670.894 22.897 660.186 22.897C649.519 22.897 642.63 30.9902 642.63 41.2417C642.63 51.5347 649.519 59.5449 660.186 59.5449C670.894 59.5449 677.783 51.5347 677.783 41.2417ZM694.591 11.4834H746.18V22.98H726.59V71H714.139V22.98H694.591V11.4834ZM756.056 11.4834H797.934V22.9385H768.508V32.7334H790.961V44.064H768.508V59.5449H797.934V71H756.056V11.4834ZM66.7993 108.903L55.0537 112.722C52.5635 104.628 46.4209 99.7725 38.0371 99.7725C27.6196 99.7725 20.481 107.824 20.481 118.242C20.481 128.161 27.4536 136.628 38.0371 136.628C46.3794 136.628 52.522 131.855 55.0952 123.471L66.9238 127.124C63.3545 139.616 51.6504 148 38.0371 148C21.4771 148 7.69775 135.258 7.69775 118.242C7.69775 101.557 20.8545 88.4419 38.0371 88.4419C51.1938 88.4419 62.8149 95.6636 66.7993 108.903ZM108.926 112.307H119.468C121.833 112.307 122.913 112.141 123.992 111.726C126.399 110.729 128.267 108.862 128.267 105.957C128.267 103.134 126.399 101.225 123.992 100.188C122.996 99.731 121.917 99.5649 119.426 99.5649H108.926V112.307ZM108.926 136.711H123.328C125.901 136.711 127.146 136.503 128.308 136.047C130.84 135.009 132.915 132.934 132.915 129.697C132.915 126.667 130.964 124.467 128.308 123.43C127.188 122.973 125.942 122.766 123.245 122.766H108.926V136.711ZM96.5161 148V88.5249H120.754C125.486 88.5249 128.64 89.3135 131.296 90.7661C136.567 93.6714 140.095 99.0254 140.095 106.081C140.095 109.775 138.684 113.095 136.235 115.876C141.382 118.74 145.159 123.72 145.159 130.195C145.159 137.084 141.755 142.521 136.65 145.51C133.911 147.087 130.674 148 125.776 148H96.5161ZM153.376 88.4419H165.828V136.503H195.254V148H153.376V88.4419ZM199.155 88.4834H211.565V120.981C211.565 122.89 211.814 124.758 212.312 126.542C213.889 132.104 217.998 136.545 224.888 136.545C231.86 136.545 235.969 132.104 237.505 126.542C238.003 124.758 238.252 122.89 238.252 120.981V88.4834H250.662V120.773C250.662 123.388 250.33 125.961 249.79 128.369C247.009 139.907 237.878 148.042 224.929 148.042C211.98 148.042 202.808 139.907 200.027 128.369C199.446 125.961 199.155 123.388 199.155 120.773V88.4834ZM261.287 88.4834H303.164V99.9385H273.738V109.733H296.191V121.064H273.738V136.545H303.164V148H261.287V88.4834ZM324.912 112.307H335.454C337.82 112.307 338.899 112.141 339.978 111.726C342.385 110.729 344.253 108.862 344.253 105.957C344.253 103.134 342.385 101.225 339.978 100.188C338.982 99.731 337.903 99.5649 335.413 99.5649H324.912V112.307ZM324.912 136.711H339.314C341.887 136.711 343.132 136.503 344.294 136.047C346.826 135.009 348.901 132.934 348.901 129.697C348.901 126.667 346.951 124.467 344.294 123.43C343.174 122.973 341.929 122.766 339.231 122.766H324.912V136.711ZM312.502 148V88.5249H336.741C341.472 88.5249 344.626 89.3135 347.283 90.7661C352.554 93.6714 356.082 99.0254 356.082 106.081C356.082 109.775 354.67 113.095 352.222 115.876C357.368 118.74 361.145 123.72 361.145 130.195C361.145 137.084 357.742 142.521 352.637 145.51C349.897 147.087 346.66 148 341.763 148H312.502ZM369.363 88.4834H411.24V99.9385H381.814V109.733H404.268V121.064H381.814V136.545H411.24V148H369.363V88.4834ZM432.988 148H420.579V88.5249H449.673C454.736 88.5249 458.223 89.4795 461.086 91.3057C465.901 94.2524 469.014 99.5234 469.014 106.33C469.014 110.19 467.935 113.676 465.984 116.499C463.909 119.528 461.128 121.438 457.974 122.517L457.434 122.724L472.542 148H458.264L444.194 123.969H432.988V148ZM432.988 112.597H448.054C450.42 112.597 451.541 112.473 452.578 112.016C454.902 111.062 456.77 109.152 456.77 106.33C456.77 103.549 454.985 101.557 452.578 100.603C451.582 100.146 450.461 99.98 448.013 99.98H432.988V112.597ZM491.509 148H479.099V88.5249H508.193C513.257 88.5249 516.743 89.4795 519.607 91.3057C524.421 94.2524 527.534 99.5234 527.534 106.33C527.534 110.19 526.455 113.676 524.504 116.499C522.429 119.528 519.648 121.438 516.494 122.517L515.955 122.724L531.062 148H516.785L502.715 123.969H491.509V148ZM491.509 112.597H506.575C508.94 112.597 510.061 112.473 511.099 112.016C513.423 111.062 515.291 109.152 515.291 106.33C515.291 103.549 513.506 101.557 511.099 100.603C510.103 100.146 508.982 99.98 506.533 99.98H491.509V112.597ZM564.058 148H551.648V125.422L530.107 88.5249H544.385L557.832 112.888L571.279 88.5249H585.557L564.058 125.422V148ZM614.526 135.839V148H602.2V135.839H614.526ZM613.862 130.734H602.988C602.822 121.894 605.811 118.242 610.293 114.963C613.489 112.597 617.1 110.522 617.1 106.289C617.1 102.595 613.613 99.897 608.674 99.897C602.698 99.897 600 103.549 599.834 108.571H587.3C587.798 96.6597 595.725 88.4834 608.757 88.4834C620.959 88.4834 629.551 95.9126 629.551 106.496C629.551 112.556 626.189 116.167 622.039 119.196C617.307 122.6 613.945 124.301 613.862 130.734Z" fill="url(#paint0_linear_24_229)"/>
<path d="M13.4058 71H5.97656V11.4419H45.1562V18.4561H13.4058V71ZM109.693 41.2002C109.693 58.0923 96.7854 71 79.5198 71C62.2957 71 49.3465 58.0923 49.3465 41.2002C49.3465 24.3911 62.2957 11.4419 79.5198 11.4419C96.7854 11.4419 109.693 24.3911 109.693 41.2002ZM102.181 41.2002C102.181 28.251 92.7181 18.4561 79.5198 18.4561C66.3216 18.4561 56.8587 28.251 56.8587 41.2002C56.8587 54.1909 66.3216 63.9858 79.5198 63.9858C92.7181 63.9858 102.181 54.1909 102.181 41.2002ZM114.174 11.4419H163.149V18.4146H142.355V71H134.926V18.4146H114.174V11.4419ZM227.976 41.2002C227.976 58.0923 215.068 71 197.803 71C180.579 71 167.629 58.0923 167.629 41.2002C167.629 24.3911 180.579 11.4419 197.803 11.4419C215.068 11.4419 227.976 24.3911 227.976 41.2002ZM220.464 41.2002C220.464 28.251 211.001 18.4561 197.803 18.4561C184.604 18.4561 175.142 28.251 175.142 41.2002C175.142 54.1909 184.604 63.9858 197.803 63.9858C211.001 63.9858 220.464 54.1909 220.464 41.2002ZM246.153 36.4272H260.762C263.502 36.4272 264.954 36.1367 266.282 35.5972C269.603 34.2275 271.927 31.2393 271.927 27.2964C271.927 23.3535 269.603 20.4482 266.282 19.0371C264.996 18.4561 263.543 18.207 260.721 18.207H246.153V36.4272ZM246.153 64.1519H263.958C267.071 64.1519 268.69 63.8198 270.142 63.2388C273.961 61.7031 276.658 58.2168 276.658 53.5684C276.658 49.0029 273.961 45.4751 270.142 43.8979C268.69 43.3169 267.071 43.0264 263.958 43.0264H246.153V64.1519ZM238.724 71V11.4834H261.468C265.411 11.4834 267.818 12.0229 269.935 12.9775C275.496 15.4678 279.107 20.8218 279.107 27.4209C279.107 31.9863 277.073 35.9707 273.587 38.627C279.813 41.0757 284.005 46.7617 284.005 53.7759C284.005 60.9146 280.02 66.7666 274.002 69.3813C271.761 70.4189 269.229 71 265.037 71H238.724ZM354.601 11.4834V71H347.213V11.4834H354.601ZM332.272 53.9419C332.272 49.501 329.699 46.0977 326.046 44.645C324.635 44.0225 323.1 43.7734 320.111 43.7734H302.472V64.0688H320.111C323.1 64.0688 324.635 63.7368 326.046 63.1558C329.699 61.6201 332.272 58.3413 332.272 53.9419ZM339.577 53.9419C339.577 60.9561 335.8 66.6421 330.031 69.2153C327.707 70.3774 325.092 71 320.9 71H295.043V11.4834H302.472V36.8838H320.9C325.092 36.8838 327.665 37.5063 329.989 38.627C335.8 41.2417 339.577 47.0107 339.577 53.9419ZM423.453 11.4834H433.248L407.1 36.6763C417.435 48.1313 427.769 59.5449 438.062 71H428.475C419.095 60.4165 409.632 49.7915 400.252 39.1665V71H392.823V11.4834H400.252V34.3936L423.453 11.4834Z" fill="url(#paint1_linear_24_229)"/>
<defs>
<linearGradient id="paint0_linear_24_229" x1="418.5" y1="0" x2="392.665" y2="235.247" gradientUnits="userSpaceOnUse">
<stop stop-color="#6C81BD"/>
<stop offset="1" stop-color="#90CA94"/>
</linearGradient>
<linearGradient id="paint1_linear_24_229" x1="235.5" y1="0" x2="225.818" y2="108.906" gradientUnits="userSpaceOnUse">
<stop stop-color="#6C81BD"/>
<stop offset="1" stop-color="#90CA94"/>
</linearGradient>
</defs>
</svg>
