<svg width="856" height="1044" viewBox="0 0 856 1044" fill="none" xmlns="http://www.w3.org/2000/svg">
<path d="M0 361.253C15.8336 321.902 44.9733 265.042 98.1246 212.233C169.198 141.622 244.617 116.605 278.582 105.782C298.625 99.3984 361.99 80.7114 446.005 84.5028C546.74 89.0503 618.389 123.27 634.692 131.339C705.651 166.444 749.476 211.282 763.001 225.724C816.842 283.2 843.798 342.966 857 379" stroke="url(#paint0_radial_108_3)" stroke-opacity="0.11" stroke-miterlimit="10"/>
<ellipse cx="428" cy="278" rx="428" ry="278" fill="url(#paint1_radial_108_3)" fill-opacity="0.91"/>
<ellipse cx="428" cy="296" rx="428" ry="278" fill="url(#paint2_radial_108_3)" fill-opacity="0.76"/>
<ellipse cx="227.981" cy="128.497" rx="227.981" ry="128.497" transform="matrix(0.93001 0.367534 -0.39173 0.92008 100.672 639.545)" fill="url(#paint3_radial_108_3)" fill-opacity="0.36"/>
<path d="M856 372.998C799.456 205.678 627.794 84 424.789 84C221.783 84 62.2862 197.229 0 355.436V630.564C62.2862 788.771 228.956 902 424.789 902C620.621 902 799.456 780.332 856 613.003V372.987V372.998Z" fill="#374055"/>
<ellipse cx="360.654" cy="581.125" rx="198.346" ry="124.933" fill="url(#paint4_radial_108_3)" fill-opacity="0.21"/>
<ellipse cx="649.628" cy="321.225" rx="198.346" ry="124.933" fill="url(#paint5_radial_108_3)" fill-opacity="0.15"/>
<ellipse cx="166.451" cy="293.127" rx="152.255" ry="124.933" fill="url(#paint6_radial_108_3)" fill-opacity="0.21"/>
<path d="M376.024 270.428C376.863 271.07 378.469 272.285 380.323 271.893C382.322 271.472 384.248 269.264 384.155 267.207C384 263.685 378.003 263.564 375.745 258.035C374.471 254.915 375.258 252.215 374.533 252.085C373.684 251.924 371.933 255.426 371.633 259.109C371.312 263.073 372.627 267.839 376.024 270.428Z" fill="#939AB1"/>
<path d="M296.136 353.677C293.568 349.322 292.936 341.565 296.789 337.621C298.839 335.514 302.371 334.28 305.562 334.791C310.45 335.564 310.668 339.779 314.987 340.772C319.958 341.906 322.341 336.949 330.264 334.791C336.499 333.096 336.893 335.665 345.863 335.103C357.815 334.36 360.042 329.624 370.565 330.376C374.004 330.627 378.136 330.978 381.938 333.838C385.697 336.668 389.768 342.077 388.763 347.375C387.748 352.724 382.342 353.958 382.911 357.45C383.139 358.825 384.32 360.731 393.31 364.063C404.372 368.157 406.692 365.327 412.482 369.1C415.931 371.348 419.939 375.452 422.933 378.503C425.47 381.102 426.206 382.115 428.07 382.848C433.715 385.046 439.018 380.41 440.333 381.824C441.814 383.42 438.117 392.642 430.711 395.492C423.047 398.442 415.299 393.063 394.595 381.313C378.924 372.422 371.083 367.966 367.044 366.24C332.584 351.509 304.08 367.144 296.136 353.667V353.677Z" fill="#1D1D20"/>
<path d="M508.393 222.984C507.171 217.786 505.389 215.929 506.643 213.401C507.627 211.404 510.102 209.818 512.526 210.009C514.763 210.18 516.182 211.795 517.28 213.039C519.88 215.99 520.118 219.381 520.159 220.074C520.356 223.747 518.678 226.376 517.28 228.563C515.892 230.741 512.07 235.879 510.019 235.116C508.29 234.464 510.144 230.48 508.393 222.984Z" fill="#1D1D20"/>
<path d="M489.668 315.464C488.29 313.026 487.058 308.47 488.881 306.794C490.745 305.088 494.173 307.878 501.755 307.246C504.324 307.035 506.561 306.493 509.13 305.881C514.723 304.537 514.754 303.814 517.291 303.603C520.419 303.342 523.143 304.436 528.591 306.644C534.951 309.213 535.541 310.467 538.638 310.447C542.253 310.427 543.278 308.721 545.857 309.383C549.099 310.206 552.113 314.08 551.668 316.528C550.031 325.579 498.472 331.109 489.668 315.464Z" fill="#1D1D20"/>
<path d="M495.478 332.654C495.198 334.952 499.61 337.993 503.639 338.434C507.596 338.866 510.247 336.698 514.784 334.179C525.856 328.028 533.5 327.898 533.303 326.884C532.879 324.636 496.244 326.322 495.478 332.664V332.654Z" fill="#1D1D20"/>
<path d="M510.288 387.855C514.213 392.21 512.328 400.088 511.448 400.178C510.567 400.278 510.733 392.562 505.275 389.22C503.069 387.865 499.868 387.203 498.853 388.347C497.527 389.832 500.189 393.967 501.297 395.693C506.87 404.373 512.732 404.282 514.534 410.504C515.549 414.016 513.954 414.949 515.56 418.843C517.269 422.997 519.444 422.816 520.573 426.309C522.075 430.985 518.739 433.082 520.448 437.267C521.95 440.959 525.037 440.508 525.979 443.368C527.823 448.997 516.927 453.864 518.139 459.182C518.543 460.959 520.158 462.143 538.574 468.525C549.978 472.479 554.835 473.914 557.331 478.61C558.626 481.038 558.398 482.684 560.542 484.711C563.163 487.19 565.462 486.598 570.693 489.568C574.66 491.816 574.162 492.628 575.706 492.809C581.216 493.441 583.546 482.724 591.387 481.48C594.36 481.008 598.368 481.871 600.377 484.34C605.587 490.752 595.592 505.704 590.486 513.35C587.845 517.294 584.188 522.683 577.767 528.292C568.953 535.979 565.555 534.815 557.083 540.866C538.968 553.8 534.037 573.729 533.364 576.619C532.732 579.359 531.355 585.5 532.059 593.458C532.453 597.873 532.826 602.148 535.053 607.215C536.689 610.948 538.118 612.363 538.419 615.906C538.709 619.458 537.424 619.899 537.3 624.415C537.155 629.553 538.771 630.667 538.419 634.37C538.325 635.333 537.87 638.885 533.561 643.782C522.479 656.376 500.738 661.042 501.422 664.966C501.764 666.892 507.087 666.18 509.086 670.033C511.054 673.836 508.082 678.773 507.781 679.265C505.109 683.58 502.012 682.607 498.998 686.871C496.574 690.293 498.138 691.558 495.632 697.007C494.731 698.973 492.794 703.188 488.723 706.419C483.079 710.895 478.987 709.018 476.388 712.932C473.933 716.635 476.553 719.886 474.15 722.706C474.15 722.706 470.96 726.449 461.815 724.512C436.573 719.173 452.938 394.318 491.655 385.648C505.534 382.537 510.319 387.855 510.319 387.855H510.288Z" fill="#939AB1"/>
<path d="M580.264 638.925C580.264 638.925 589.369 632.051 590.363 626.402C590.643 624.816 591.119 623.281 591.44 621.706C591.927 619.357 592.041 618.374 592.652 618.183C593.677 617.872 595.262 620.1 595.749 620.792C596.609 622.007 598.96 625.679 599.115 632.403C599.146 633.587 599.25 638.343 598.173 638.534C597.24 638.704 595.583 635.463 594.806 632.663C593.916 629.482 594.289 627.335 593.595 627.185C592.89 627.034 591.709 629.081 591.036 630.837C590.373 632.573 589.493 635.824 590.632 641.926C591.72 647.736 593.087 647.846 592.787 650.927C592.559 653.275 591.285 655.272 588.747 659.276C585.163 664.915 584.242 664.584 582.688 668.146C581.766 670.254 581.207 672.401 580.13 676.495C579.301 679.666 579.187 680.68 578.245 682.366C577.458 683.771 575.842 686.691 573.128 687.323C570.259 687.995 567.131 685.878 565.722 684.322C558.234 676.074 567.525 648.538 580.264 638.925Z" fill="#1D1D20"/>
<path d="M291.279 248.794C290.978 245.081 293.319 240.706 296.53 239.662C299.565 238.679 301.191 241.378 308.047 243.616C311.072 244.599 314.583 245.743 318.695 245.442C326.08 244.89 327.312 240.254 333.713 240.425C337.038 240.515 342.134 241.91 343.625 245.753C345.355 250.209 341.264 255.437 340.86 255.948C337.39 260.263 334.283 258.728 329.922 263.705C328.897 264.879 326.898 267.157 325.842 270.7C324.661 274.623 325.717 276.45 324.381 278.155C322.475 280.584 317.442 280.514 313.734 278.918C306.452 275.787 308.441 268.612 299.15 258.678C294.728 253.941 291.6 252.717 291.279 248.784V248.794Z" fill="#1D1D20"/>
<path d="M338.271 179.865C338.074 179.272 337.028 175.881 338.841 172.83C339.214 172.198 340.539 169.96 342.953 169.729C343.44 169.679 345.107 169.519 345.925 170.562C347.168 172.158 344.817 174.496 344.33 179.854C343.999 183.407 344.796 185.002 343.989 185.454C342.777 186.126 339.431 183.377 338.282 179.854L338.271 179.865Z" fill="#1D1D20"/>
<path d="M418.191 226.034C418.17 225.954 408.351 226.175 406.052 231.634C404.374 235.608 407.471 240.555 407.885 241.207C409.594 243.866 411.262 244.438 417.062 247.98C427.886 254.593 429.274 256.982 429.905 258.447C431.749 262.681 430.972 267.478 430.05 267.729C429.512 267.869 429.077 266.454 427.088 265.371C426.156 264.869 424.872 264.166 424.126 264.638C422.448 265.682 425.628 271.151 423.277 274.211C422.479 275.255 422.034 274.713 418.761 276.72C416.347 278.195 415.146 278.928 414.245 280.252C412.277 283.152 413.696 285.711 412.267 286.584C410.754 287.507 408.963 284.768 403.939 282.901C399.537 281.276 397.352 282.059 396.741 280.543C395.964 278.637 398.419 274.894 401.402 274.061C402.779 273.669 404.643 274.241 408.32 275.385C411.997 276.529 412.505 277.061 413.965 276.86C415.747 276.62 418.233 275.385 419.051 273.178C420.273 269.876 416.617 267.508 417.352 263.013C417.86 259.972 419.755 259.671 420.18 257.704C421.816 250.048 395.829 241.418 396.741 234.132C397.538 227.79 418.222 226.145 418.201 226.024L418.191 226.034Z" fill="#939AB1"/>
<path d="M590.602 386.842C593.647 385.497 602.823 382.156 605.403 385.156C606.801 386.792 605.092 388.959 606.273 393.585C606.542 394.629 608.044 400.569 612.073 401.733C615.221 402.647 618.463 400.228 621.353 398.081C627.754 393.314 627.433 389.481 632.094 387.956C635.274 386.912 639.551 387.354 641.954 389.642C645.32 392.833 644.782 399.395 644.564 402.014C644.336 404.834 643.746 405.938 644.564 407.634C645.994 410.604 649.36 410.474 649.784 412.691C650.147 414.608 648.003 416.545 645.724 418.592C642.047 421.903 640.628 421.211 639.344 423.368C638.267 425.165 639.189 425.757 638.474 432.641C638.111 436.173 637.728 437.367 636.734 438.26C635.356 439.494 633.782 439.284 632.094 439.665C627.578 440.688 627.485 444.783 623.973 447.251C617.925 451.506 610.612 445.355 606.739 449.108C603.393 452.349 607.899 457.818 604.129 461.832C601.115 465.053 594.455 465.534 591.088 465.775C588.043 465.996 586.272 465.695 584.408 467.04C581.829 468.896 582.378 471.475 580.658 472.729C577.437 475.068 569.068 470.682 565.34 467.2C548.457 451.436 565.982 397.659 590.612 386.802L590.602 386.842Z" fill="#1D1D20"/>
<path d="M695.491 445.666C697.003 445.013 698.971 449.449 704.399 453.101C709.111 456.272 710.437 454.807 716.279 458.621C718.019 459.754 720.649 461.671 723.208 464.611C725.642 467.411 727.527 470.562 727.164 470.843C726.595 471.284 722.245 463.337 714.041 461.731C710.23 460.989 709.847 462.434 706.118 461.491C700.349 460.025 695.398 455.038 694.735 449.74C694.683 449.288 694.279 446.177 695.481 445.666H695.491Z" fill="#939AB1"/>
<path d="M521.019 235.879C517.487 236.34 513.023 235.216 512.412 233.159C511.791 231.062 515.726 229.918 516.907 225.182C517.684 222.031 516.731 219.371 516.348 218.298C515.509 215.97 513.365 212.066 511.293 212.317C509.906 212.488 508.973 214.464 508.114 216.301C507.109 218.438 507.513 218.89 506.612 220.465C505.649 222.171 503.546 224.539 501.557 224.268C499.973 224.058 499.683 222.342 498.564 222.452C497.321 222.583 497.301 224.73 495.384 227.891C493.406 231.152 492.153 230.952 491.645 233.149C491.086 235.527 492.422 236.33 491.645 238.588C490.837 240.926 488.911 241.498 489.211 242.391C489.657 243.736 494.349 243.405 495.944 243.294C500.221 242.993 501.247 242.14 506.229 241.659C510.89 241.207 512.205 241.749 512.775 242.02C515.209 243.194 515.281 244.97 517.073 245.281C519.238 245.663 520.325 243.264 523.805 241.117C529.316 237.705 534.173 239.02 534.474 237.314C534.712 235.949 531.822 233.751 528.86 233.51C525.722 233.25 524.841 235.367 520.998 235.869L521.019 235.879Z" fill="#3D4B71"/>
<path d="M584.52 202.623C581.299 192.238 575.23 184.33 575.23 184.33C570.942 178.741 566.581 175.249 564.706 173.834C559.673 170.031 547.513 160.839 534.68 163.337C532.246 163.809 533.323 164.02 519.506 171.134C507.036 177.557 503.804 178.6 503.722 181.029C503.545 185.645 514.928 189.709 519.206 191.224C531.221 195.509 539.89 194.656 540.035 196.412C540.149 197.927 533.862 200.516 527.243 200.305C522.873 200.165 520.563 198.87 512.07 195.258C496.316 188.565 494.058 188.675 492.577 188.916C486.476 189.899 480.127 195.208 479.485 201.74C479.091 205.684 480.707 210.892 484.394 212.698C487.781 214.344 490.278 211.845 494.659 213.13C497.983 214.103 499.806 216.502 502.696 220.485C512.629 234.213 517.59 241.157 517.103 245.301C516.43 251.091 512.318 254.553 514.069 256.56C516.13 258.919 523.121 255.597 523.774 257.032C524.25 258.066 521.257 261.146 517.704 262.672C515.508 263.615 514.203 263.494 513.333 264.789C512.246 266.405 513.437 267.87 512.608 269.495C511.645 271.362 508.641 272.606 506.301 272.084C502.354 271.201 502.53 265.833 498.532 264.799C496.026 264.147 493.623 265.652 491.976 266.675C489.107 268.472 483.908 273.228 485.42 278.516C486.621 282.701 494.224 279.701 499.34 285.099C502.872 288.832 502.644 293.418 505.006 293.569C507.15 293.699 508.942 290.046 509.056 289.806C511.127 285.471 509.107 280.664 509.542 280.553C510.102 280.403 512.246 288.551 514.079 288.391C515.084 288.3 515.198 285.802 517.797 281.336C518.999 279.279 519.61 278.245 520.387 278.045C523.411 277.272 525.752 284.698 530.579 285.26C534.193 285.671 536.638 281.948 539.962 279.149C549.16 271.422 558.772 276.138 567.803 272.716C587.814 265.13 590.807 222.884 584.531 202.634L584.52 202.623Z" fill="#1C2236"/>
<path d="M593.502 203.837C582.326 194.405 582.719 197.746 573.988 189.427C566.81 182.584 564.49 178.359 562.833 179.072C561.217 179.774 562.854 184.089 561.901 192.578C561.228 198.589 560.855 201.921 558.649 204.731C553.428 211.374 543.993 207.4 540.523 212.387C535.5 219.612 550.363 235.076 547.494 237.594C545.505 239.34 535.375 234.514 528.436 225.884C520.44 215.939 522.998 208.795 514.029 200.676C508.498 195.669 501.714 193.11 500.553 194.375C499.487 195.539 503.94 199.121 504.738 205.634C505.339 210.591 503.495 214.514 501.952 217.786C497.488 227.259 492.319 227.269 488.559 236.23C487.866 237.885 484.572 245.753 487.752 248.693C489.688 250.479 493.293 249.787 496.597 249.165C504.085 247.74 507.244 244.117 509.616 245.582C511.636 246.826 510.186 249.967 512.351 251.503C514.785 253.239 519.259 251.121 522.636 249.476C531.605 245.12 532.361 241.107 537.747 240.595C541.745 240.224 546.582 241.939 547.39 244.649C548.581 248.613 540.471 252.406 541.766 256.179C542.853 259.34 549.14 258.266 551.481 262.882C552.621 265.11 552.237 267.508 552.103 268.321C551.461 272.345 548.778 273.138 548.364 275.576C547.597 280.072 555.759 283.223 560.213 288.571C567.214 296.98 558.089 306.001 563.02 315.163C566.572 321.766 574.703 327.285 581.104 326.041C587.888 324.716 587.411 316.849 595.708 313.698C604.336 310.427 613.699 315.585 616.06 316.879C625.807 322.238 629.649 331.64 630.509 333.958C631.928 337.782 631.234 338.374 632.839 341.043C637.003 347.967 644.233 348.097 644.802 352.633C645.258 356.225 640.991 358.152 642.14 360.681C643.176 362.959 647.557 363.42 650.447 362.939C655.729 362.046 660.805 357.179 660.09 353.596C659.147 348.91 649.08 350.345 645.797 343.612C643.922 339.758 646.283 337.38 645.797 331.701C645.123 323.934 639.893 318.716 636.496 314.952C636.496 314.952 624.75 301.998 614.558 281.788C611.285 275.305 598.939 250.82 608.914 235.096C616.93 222.442 634.517 223.184 635.17 213.2C635.481 208.413 631.793 202.693 628.22 202.252C625.703 201.941 625.019 204.46 620.752 205.403C616.889 206.256 613.347 205.112 609.545 203.888C604.108 202.132 601.643 200.024 600.265 201.088C598.722 202.272 600.545 205.854 599.178 206.687C597.81 207.52 594.61 204.791 593.481 203.837H593.502Z" fill="#939AB1"/>
<path d="M602.035 211.444C613.118 211.354 623.827 211.273 629.534 204.781C630.787 203.356 632.206 199.091 635.034 190.572C638.597 179.824 638.328 178.58 640.078 177.246C645.081 173.432 654.226 178.49 668.955 184.792C700.203 198.168 700.421 193.131 706.998 199.442C723.425 215.217 715.885 240.685 728.997 244.739C735.667 246.797 740.691 241.167 745.952 244.739C748.697 246.606 750.303 250.148 750.997 265.612C751.535 277.664 750.789 280.493 750.997 288.702C751.514 309.434 756.797 311.772 753.752 322.007C750.779 331.982 742.182 341.796 734.963 341.103C727.174 340.361 722.078 327.536 721.674 327.777C721.219 328.048 730.882 342.147 728.552 344.204C727.299 345.308 723.653 342.027 716.175 338.876C709.204 335.935 701.539 332.704 694.175 334.43C684.854 336.618 685.03 344.646 675.376 346.422C667.08 347.947 660.306 343.241 659.788 342.869C654.579 339.137 654.537 334.842 651.078 328.219C646.189 318.846 635.438 306.684 623.113 305.129C612.413 303.774 608.446 311.41 601.569 308.239C593.832 304.667 589.938 290.889 594.236 281.597C598.13 273.178 606.53 273.238 607.069 267.388C607.866 258.788 590.507 250.289 585.525 247.85C569.119 239.822 556.514 240.274 555.271 234.082C554.484 230.159 559.29 228.714 558.938 222.984C558.554 216.803 552.795 215.839 550.683 208.333C549.025 202.453 550.341 195.158 553.438 194.124C556.317 193.161 558.368 198.409 566.726 203.446C573.759 207.681 580.585 208.945 586.892 210.109C593.469 211.324 598.866 211.464 602.014 211.444H602.035Z" fill="#1D1D20"/>
<path d="M680.557 231.363C674.239 231.363 669.764 231.363 664.855 233.44C660.608 235.226 652.54 240.013 653.078 245.191C653.565 249.867 660.815 252.566 666.999 254.874C679.138 259.4 682.183 256.149 690.904 260.062C702.163 265.11 703.851 273.549 709.102 272.505C714.229 271.492 717.647 262.45 716.953 255.215C715.793 243.134 703.033 234.775 693.4 232.396C689.164 231.353 685.093 231.353 680.557 231.363Z" fill="#1C2236"/>
<path d="M646.345 226.917C646.304 229.506 649.577 232.045 650.809 231.513C652.332 230.861 650.208 225.693 652.684 223.987C653.616 223.345 654.175 223.897 656.713 223.425C658.515 223.084 661.571 222.522 662.182 220.776C662.865 218.809 660.38 215.558 658.008 215.478C656.371 215.418 655.905 216.913 652.104 220.636C648.033 224.63 646.376 225.081 646.345 226.907V226.917Z" fill="#1C2236"/>
<path d="M661.166 212.417C660.079 212.167 658.929 209.738 660.162 208.373C661.28 207.129 663.663 207.571 664.191 208.514C664.905 209.798 662.544 212.739 661.166 212.417Z" fill="#1C2236"/>
<path d="M735.574 327.958C736.279 328.76 737.615 329.995 738.06 329.724C738.682 329.342 736.496 326.683 736.569 322.83C736.631 319.308 738.526 317.361 737.894 316.899C737.211 316.398 734.155 318.094 733.254 320.753C732.136 324.074 734.942 327.255 735.574 327.968V327.958Z" fill="#1C2236"/>
<path d="M465.204 184.23C458.306 182.624 451.356 179.152 451.946 176.674C452.93 172.559 474.298 173.011 475.033 168.766C475.478 166.197 468.021 163.929 468.891 162.444C469.979 160.598 481.91 163.357 483.133 161.391C483.744 160.417 481.196 159.123 476.255 154.537C475.147 153.513 469.948 148.687 470.849 148.034C471.532 147.543 474.495 150.352 479.197 150.322C482.594 150.302 485.38 148.807 487.794 147.513C491.905 145.305 491.74 144.071 493.936 143.649C497.25 143.017 499.891 145.395 506.22 148.747C512.507 152.078 517.085 154.497 522.678 155.249C529.089 156.112 529.814 153.824 540.606 152.961C546.427 152.5 559.043 151.506 563.942 156.474C564.429 156.965 566.832 159.414 565.661 161.571C562.906 166.619 544.822 162.284 538.887 168.244C534.154 173.001 542.264 179.162 537.903 182.825C533.222 186.759 522.709 180.607 503.278 181.069C484.79 181.5 478.928 187.431 465.214 184.23H465.204Z" fill="#1D1D20"/>
<path d="M214.851 304.818C217.668 290.719 214.871 292.726 217.916 281.236C220.423 271.783 223.033 267.719 221.562 266.695C220.123 265.692 217.098 269.224 209.04 272.696C203.333 275.155 200.174 276.509 196.559 276.068C188.014 275.024 186.823 265.13 180.629 264.719C171.649 264.137 165.311 284.347 161.623 283.213C159.065 282.42 158.288 271.512 162.514 261.377C167.382 249.687 175.036 248.252 177.791 236.651C179.49 229.507 178.361 222.532 176.652 222.191C175.078 221.88 174.115 227.409 168.708 231.343C164.586 234.333 160.153 234.755 156.455 235.106C145.756 236.12 143.146 231.795 133.275 233.139C131.452 233.39 122.772 234.574 121.747 238.719C121.126 241.237 123.549 243.917 125.766 246.365C130.8 251.924 135.616 252.757 135.502 255.477C135.398 257.795 131.877 258.156 131.587 260.735C131.266 263.645 135.398 266.334 138.557 268.341C146.947 273.67 150.914 272.285 154.062 276.55C156.403 279.711 157.294 284.628 155.285 286.665C152.343 289.655 144.886 284.758 142.172 287.738C139.893 290.237 144.005 294.963 141.074 299.248C139.655 301.325 137.325 302.199 136.527 302.5C132.612 303.985 130.551 302.128 128.179 303.001C123.777 304.617 125.061 313.036 122.524 319.458C118.526 329.553 105.9 326.422 100.193 335.153C96.0812 341.445 95.2319 351.028 99.5613 355.774C104.15 360.792 110.934 356.447 117.904 361.815C125.155 367.404 125.258 377.831 125.279 380.46C125.383 391.317 118.919 399.255 117.283 401.141C114.58 404.252 113.699 403.961 112.125 406.65C108.034 413.615 111.545 419.736 107.785 422.495C104.802 424.673 100.939 422.074 99.2609 424.312C97.7487 426.319 99.5302 430.222 101.415 432.41C104.864 436.393 111.752 438.2 114.59 435.801C118.298 432.661 111.959 424.944 116.33 418.813C118.826 415.31 122.13 416.093 126.967 412.832C133.565 408.376 135.595 401.372 137.242 396.636C137.242 396.636 142.918 380.289 155.844 361.614C159.987 355.624 175.647 332.985 194.685 333.447C210.003 333.818 218.175 348.92 227.404 344.455C231.837 342.318 235.089 336.347 233.691 333.136C232.707 330.878 230.118 331.56 227.124 328.46C224.421 325.65 223.665 322.107 222.857 318.314C221.697 312.875 222.339 309.755 220.703 309.133C218.88 308.44 216.591 311.762 215.161 311.039C213.732 310.317 214.571 306.263 214.851 304.838V304.818Z" fill="#939AB1"/>
<path d="M252.989 861.095C250.762 850.679 248.763 831.242 251.715 824.107C254.729 816.812 260.301 828.713 272.575 826.054C276.749 825.151 280.374 822.853 284.527 820.214C293.601 814.464 293.642 811.393 297.754 810.48C302.829 809.356 307.241 814.052 316.066 823.455C326.372 834.433 327.325 839.751 332.348 839.681C338.21 839.601 339.867 832.326 344.052 835.135C349.303 838.668 354.182 855.165 353.467 865.631C350.805 904.255 267.251 927.867 252.978 861.085L252.989 861.095Z" fill="#1D1D20"/>
<path d="M350.845 798.809C339.669 789.677 340.063 792.919 331.332 784.871C324.154 778.248 321.834 774.164 320.177 774.856C318.561 775.528 320.197 779.713 319.244 787.921C318.571 793.741 318.198 796.963 315.992 799.682C310.772 806.104 301.336 802.261 297.867 807.088C292.843 814.082 307.706 829.044 304.837 831.482C302.848 833.178 292.719 828.502 285.779 820.153C277.783 810.53 280.342 803.626 271.372 795.758C265.841 790.912 259.057 788.443 257.897 789.657C256.83 790.781 261.284 794.253 262.081 800.545C262.682 805.342 260.839 809.145 259.295 812.306C254.831 821.468 249.663 821.488 245.903 830.148C245.209 831.753 241.915 839.36 245.095 842.199C247.032 843.925 250.636 843.263 253.94 842.651C261.429 841.266 264.588 837.764 266.96 839.189C268.98 840.393 267.529 843.434 269.694 844.919C272.128 846.595 276.603 844.548 279.979 842.962C288.949 838.747 289.705 834.864 295.091 834.372C299.089 834.011 303.926 835.667 304.734 838.286C305.925 842.119 297.815 845.792 299.109 849.434C300.197 852.495 306.484 851.461 308.825 855.917C309.964 858.074 309.581 860.392 309.446 861.175C308.804 865.069 306.121 865.841 305.707 868.189C304.941 872.544 313.102 875.585 317.556 880.763C324.558 888.901 315.433 897.621 320.363 906.492C323.916 912.884 332.046 918.223 338.447 917.019C345.231 915.744 344.755 908.128 353.051 905.077C361.679 901.916 371.042 906.894 373.404 908.158C383.15 913.346 386.993 922.437 387.852 924.685C389.271 928.388 388.577 928.96 390.183 931.539C394.347 938.242 401.576 938.363 402.146 942.758C402.602 946.23 398.334 948.096 399.484 950.545C400.52 952.742 404.901 953.194 407.791 952.722C413.073 951.859 418.148 947.153 417.433 943.691C416.491 939.155 406.423 940.55 403.14 934.038C401.265 930.315 403.627 928.017 403.14 922.508C402.467 914.992 397.236 909.944 393.839 906.312C393.839 906.312 382.094 893.778 371.902 874.22C368.629 867.949 356.283 844.257 366.257 829.044C374.274 816.801 391.861 817.514 392.513 807.86C392.824 803.224 389.137 797.695 385.563 797.264C383.047 796.963 382.363 799.401 378.096 800.314C374.232 801.147 370.69 800.033 366.889 798.849C361.451 797.143 358.986 795.116 357.609 796.14C356.065 797.284 357.888 800.756 356.521 801.559C355.154 802.361 351.953 799.722 350.824 798.799L350.845 798.809Z" fill="#939AB1"/>
<path d="M95.1295 702.195C97.0664 698.903 108.729 698.943 112.313 703.579C115.368 707.543 110.718 712.51 113.649 716.394C117.44 721.401 126.264 714.507 139.998 719.304C141.438 719.805 146.772 721.782 153.836 722.545C156.777 722.856 158.859 722.846 160.516 721.622C163.292 719.565 161.925 716.263 163.862 714.688C167.746 711.527 179.854 719.494 185.82 723.478C199.968 732.931 202.847 734.476 203.956 737.818C204.971 740.859 204.401 742.765 206.452 747.19C208.13 750.813 209.476 751.626 211.268 755.971C212.78 759.634 212.304 760.246 213.536 762.554C215.784 766.788 219.513 768.785 220.901 769.688C229.135 775.037 233.93 793.391 230.243 797.113C218.725 808.764 87.4235 715.34 95.1502 702.215L95.1295 702.195Z" fill="#1D1D20"/>
<path d="M37.3852 669.682C37.8202 669.431 39.2599 669.712 40.306 668.648C41.8182 667.123 40.8239 664.564 41.4661 664.323C42.564 663.902 44.6251 671.548 49.576 673.174C53.6361 674.508 55.9976 670.264 60.4721 670.384C67.6395 670.575 68.4163 681.653 78.6391 692.139C89.7838 703.569 97.6244 699.395 107.07 711.527C112.871 718.982 111.162 722.153 117.159 727.08C120.649 729.94 123.145 730.442 140.805 734.516C159.749 738.881 164.006 739.945 167.537 737.226C171.763 733.974 169.65 729.389 173.907 726.759C179.397 723.358 189.682 726.79 195.637 732.79C200.153 737.336 198.941 740.106 204.555 754.465C206.917 760.516 209.61 767.41 214.291 774.706C220.05 783.677 222.204 782.954 229.879 792.828C240.454 806.425 236.798 808.342 246.441 820.103C254.685 830.158 261.086 833.299 260.589 840.082C260.216 845.2 256.394 845.641 255.7 851.341C254.758 859.038 260.537 867.688 267.549 871.962C274.965 876.478 280.631 874.2 283.624 879.087C286.214 883.322 282.992 886.714 285.872 890.055C289.538 894.3 309.798 882.288 312.739 886.443C314.904 889.503 311.724 892.263 313.702 895.594C316.25 899.869 321.988 898.023 330.596 901.284C339.648 904.706 338.788 908.88 350.409 915.092C359.089 919.728 365.48 920.571 365.345 921.213C365.024 922.718 329.746 917.35 315.018 914.52C284.67 908.67 230.718 892.193 157.615 837.082C144.14 826.846 124.616 810.62 104.274 787.871C51.6164 728.997 33.9258 671.638 37.3956 669.682H37.3852Z" fill="#3D4B71"/>
<path d="M174.063 278.295C177.45 272.255 182.701 266.645 185.021 267.839C188.874 269.816 182.898 289.705 186.937 291.491C189.382 292.575 193.577 286.173 194.83 287.377C196.383 288.872 190.563 299.318 192.199 300.984C193.017 301.807 194.964 299.75 200.806 296.318C202.111 295.545 208.274 291.923 208.688 292.936C208.999 293.709 205.436 295.746 204.255 300.161C203.395 303.352 204.172 306.343 204.835 308.932C205.974 313.357 207.248 313.507 207.103 315.675C206.876 318.946 203.83 320.793 198.849 325.85C193.898 330.878 190.304 334.53 188.118 339.568C185.601 345.348 187.704 346.612 185.767 356.938C184.721 362.507 182.463 374.569 176.238 377.871C175.617 378.202 172.561 379.817 170.718 378.162C166.398 374.288 175.389 358.473 170.977 351.379C167.455 345.719 159.221 351.72 156.694 346.693C153.98 341.294 162.825 333.045 167.393 314.732C171.733 297.321 167.341 290.297 174.073 278.286L174.063 278.295Z" fill="#1D1D20"/>
<path d="M127.787 368.87C123.344 378.393 121.428 394.077 124.183 398.703C126.865 403.209 133.732 396.897 137.492 391.779C143.178 384.042 142.329 378.222 147.746 369.933C151.464 364.254 155.493 362.066 163.551 357.681C175.152 351.369 176.032 354.811 180.186 349.693C187.964 340.1 186.587 325.931 192.656 322.519C199.43 318.716 205.634 333.768 208.182 329.443C210.026 326.302 208.482 315.424 205.406 308.661C201.284 299.569 193.681 296.308 187.664 300.131C178.85 305.741 177.793 323.813 172.138 323.041C167.808 322.449 163.862 311.22 164.929 305.992C165.716 302.148 168.772 303.674 173.526 298.004C174.272 297.111 180.237 289.996 179.626 284.156C179.285 280.855 177.12 280.634 170.76 274.031C167.425 270.569 165.758 268.843 164.38 266.575C158.932 257.574 159.263 246.566 157.171 246.325C154.395 246.004 154.82 265.471 147.746 277.764C143.769 284.668 141.438 282.35 128.336 291.08C120.423 296.358 111.153 302.54 111.422 308.129C111.64 312.585 117.834 315.033 120.568 316.117C130.646 320.101 134.437 313.528 137.751 318.776C142.049 325.59 141.428 345.81 136.643 356.607C133.649 363.35 131.246 361.424 127.777 368.86L127.787 368.87Z" fill="#1C2236"/>
<path d="M270.284 591.521C271.444 590.899 292.418 601.967 313.423 599.649C331.497 597.652 331.341 587.768 348.814 586.253C365.086 584.848 381.12 592.043 389.799 595.946C405.263 602.891 414.667 612.153 410.752 613.517C405.18 615.464 379.814 598.907 349.923 601.084C337.659 601.977 336.81 605.138 324.485 605.871C295.732 607.577 268.958 592.244 270.294 591.521H270.284Z" fill="#1C2236"/>
<path d="M251.684 607.326C234.262 601.817 216.696 589.956 218.188 581.476C220.663 567.387 274.646 568.953 276.5 554.433C277.619 545.642 258.789 537.875 260.995 532.798C263.73 526.496 293.87 535.908 296.977 529.195C298.52 525.863 292.068 521.418 279.608 505.754C276.821 502.252 263.678 485.734 265.956 483.517C267.686 481.831 275.164 491.434 287.044 491.334C295.641 491.254 302.663 486.146 308.754 481.721C319.142 474.164 318.717 469.94 324.259 468.495C332.628 466.317 339.298 474.465 355.279 485.925C371.168 497.325 382.727 505.603 396.844 508.162C413.054 511.102 414.856 503.265 442.127 500.345C456.835 498.77 488.684 495.358 501.061 512.367C502.294 514.063 508.374 522.411 505.401 529.797C498.451 547.067 452.764 532.226 437.777 552.636C425.835 568.913 446.311 589.996 435.291 602.519C423.463 615.976 396.906 594.943 347.822 596.508C301.13 598.003 286.309 618.274 251.663 607.326H251.684Z" fill="#939AB1"/>
<path d="M527.596 283.725C528.342 285.772 535.468 282.811 543.215 285.41C548.871 287.307 556.048 292.575 555.779 298.937C555.541 304.657 549.399 308.179 548.995 308.4C544.096 311.119 538.813 309.965 534.743 309.072C526.177 307.206 525.028 303.593 519.124 304.005C514.391 304.336 514.805 306.674 508.942 307.387C503.401 308.059 502.138 306.072 495.706 307.045C491.573 307.668 489.201 308.932 487.896 309.755C486.436 310.678 484.385 311.972 483.142 314.491C481.63 317.552 481.505 321.997 483.484 323.282C485.224 324.416 487.865 322.599 488.58 323.623C489.274 324.606 486.953 326.543 487.565 327.677C488.393 329.232 493.147 326.443 498.088 328.018C502.769 329.513 502.728 333.357 506.239 333.768C510.382 334.25 511.542 329.011 517.436 327.005C523.681 324.877 532.247 327.416 534.743 332.413C535.416 333.758 535.54 335.062 533.728 344.244C532.05 352.754 531.211 357.008 530.331 359.116C529.43 361.303 526.063 369.442 518.451 374.67C515.053 376.998 512.464 377.62 497.404 379.737C469.108 383.731 464.302 383.51 460.749 380.078C457.808 377.229 456.409 372.843 452.598 372.643C449.625 372.482 448.382 375.041 445.13 374.67C441.132 374.218 439.609 369.993 438.004 370.616C436.171 371.318 438.429 376.667 435.632 381.774C434.234 384.323 431.044 387.785 427.823 387.524C423.048 387.133 423.4 378.985 416.284 373.997C411.924 370.947 410.173 372.873 399.65 370.274C391.447 368.247 381.172 365.709 379.619 359.798C378.5 355.533 383.047 353.767 383.348 345.94C383.42 344.174 383.689 337.13 379.619 334.109C377.765 332.734 375.693 332.704 362.311 335.464C349.82 338.043 347.034 339.016 341.949 338.173C337.081 337.37 337.05 336.046 333.466 336.146C325.718 336.357 324.041 342.548 317.847 342.568C310.783 342.599 308.473 334.541 303.595 335.805C299.586 336.849 300.943 342.318 294.087 348.308C290.627 351.329 288.711 351.309 286.277 354.731C284.371 357.42 284.382 359.086 282.88 363.18C281.171 367.856 278.685 372.452 276.427 375.352C271.165 382.115 267.416 379.316 261.833 385.156C254.314 393.033 257.856 401.543 250.295 405.777C246.763 407.754 243.697 407.172 242.827 409.5C241.792 412.28 245.779 414.126 247.24 419.977C248.472 424.904 246.131 425.556 246.556 432.821C246.97 439.896 249.311 441.341 247.913 444.993C246.484 448.736 243.646 448.214 241.129 452.088C237.783 457.236 238.705 464.411 240.787 468.986C243.542 475.047 247.033 473.723 252.667 480.476C259.814 489.056 256.189 493.562 263.532 501.439C268.141 506.386 270.233 505.322 275.07 511.243C279.907 517.163 279.296 520.043 282.88 521.719C287.085 523.686 289.581 520.485 299.514 519.351C307.676 518.418 307.386 520.425 314.449 519.351C321.648 518.257 327.583 515.327 332.44 512.929C339.421 509.477 339.815 508.162 343.305 507.861C349.137 507.339 356.47 510.27 357.899 514.956C358.945 518.378 356.314 520.977 358.241 524.087C359.515 526.145 361.825 526.867 362.653 527.128C367.904 528.774 370.753 524.599 375.548 525.773C378.904 526.596 380.82 529.436 382.674 532.195C383.71 533.741 387.646 539.581 386.072 545.722C385.025 549.766 382.591 550.067 382.001 553.84C381.473 557.162 382.912 559.861 385.056 563.644C390.774 573.699 394.016 578.145 397.62 584.607C401.059 590.788 402.778 593.879 403.389 597.793C404.083 602.248 403.11 603.603 403.389 612.333C403.638 619.939 404.394 619.578 404.073 623.151C403.503 629.342 401.193 630.647 397.962 639.377C394.71 648.157 393.084 652.542 394.565 656.617C396.626 662.246 401.815 662.336 404.073 669.461C405.098 672.702 403.959 672.482 405.088 677.579C406.704 684.854 409.169 685.958 408.817 690.424C408.475 694.819 405.958 695.321 406.445 698.542C407.045 702.536 411.137 703.168 414.927 707.673C415.756 708.667 417.144 710.513 420.355 723.227C423.887 737.186 423.358 739.474 426.124 741.822C429.5 744.692 433.84 744.28 442.074 743.508C447.895 742.966 459.278 741.902 468.89 734.045C469.253 733.744 472.07 730.914 477.715 725.254C483.66 719.284 485.099 717.748 486.881 715.45C490.465 710.814 492.547 706.841 492.992 705.988C496.451 699.274 495.167 698.492 497.746 694.829C502.013 688.768 506.664 689.3 507.586 685.025C508.466 680.951 504.509 679.265 504.53 674.549C504.53 672.933 505.017 669.25 514.712 661.363C527.555 650.927 535.251 650.445 536.431 644.123C537.073 640.722 534.878 640.611 534.733 633.978C534.577 626.753 537.136 625.368 536.089 620.451C535.043 615.564 532.143 615.223 529.978 609.975C528.87 607.286 528.125 603.723 529.295 595.435C530.704 585.53 532.216 574.863 539.135 564.337C547.814 551.151 553.2 556.118 570.362 537.965C580.461 527.288 577.986 526.215 588.353 515.989C592.227 512.166 596.505 508.443 598.535 501.79C599.995 497.014 600.544 489.969 597.52 488.263C595.003 486.848 590.798 489.598 587.68 491.645C581.082 495.96 580.212 499.924 576.142 500.094C574.132 500.185 572.537 499.251 569.358 497.385C566.074 495.468 566.033 494.495 561.89 491.635C558.109 489.016 557.467 489.367 555.779 487.581C553.221 484.882 553.552 482.895 552.05 480.486C549.223 475.961 544.572 477.305 537.115 473.723C535.768 473.071 523.163 466.859 522.863 458.51C522.687 453.754 526.643 452.188 525.577 447.693C524.551 443.388 520.636 443.599 519.124 438.902C517.56 434.025 521.185 431.938 519.466 427.412C518.078 423.77 515.385 424.211 512.34 419.635C509.719 415.702 511.138 414.528 508.942 409.831C505.566 402.596 501.112 403.078 498.419 396.305C497.135 393.063 495.923 387.344 498.419 385.487C500.76 383.741 505.908 385.738 508.601 388.869C511.211 391.909 511.242 395.693 511.998 395.632C513.065 395.542 511.977 388.036 514.712 386.842C516.68 385.989 520.284 388.558 522.179 391.578C525.038 396.124 522.718 399.646 525.577 402.396C527.7 404.443 529.336 402.847 532.703 404.764C538.389 408.005 539.621 415.933 539.828 417.267C540.616 422.355 538.824 423.158 540.17 426.058C542.408 430.884 547.7 429.289 550.693 434.176C553.335 438.491 550.186 441.321 553.407 446.007C555.282 448.736 556.939 448.646 558.503 451.757C559.736 454.215 559.446 455.761 559.86 459.193C560.43 463.919 560.958 468.314 563.589 471.365C567.038 475.359 574.091 477.085 578.524 474.746C582.356 472.729 581.31 469.217 585.65 467.311C588.581 466.016 590.197 467.12 594.816 465.284C596.598 464.571 597.934 464.039 599.229 462.915C603.6 459.112 601.01 454.085 604.325 450.743C607.649 447.392 611.388 451.315 618.577 448.034C623.227 445.917 622.471 443.91 629.442 439.916C633.988 437.317 635.397 437.548 636.568 435.521C638.867 431.537 634.952 427.904 637.251 424.031C639.178 420.769 642.803 421.863 644.377 418.622C645.63 416.053 643.704 414.638 643.02 409.159C642.047 401.392 645.164 398.452 642.678 394.96C641.218 392.913 638.535 391.679 636.226 391.919C633.16 392.231 631.824 395.03 629.1 398.001C624.895 402.586 616.66 408.397 611.451 406.45C606.696 404.674 604.418 396.405 603.641 393.605C602.781 390.474 602.906 388.839 601.269 386.842C598.545 383.54 595.324 384.584 593.118 382.447C589.669 379.095 593.553 372.592 595.49 360.47C596.266 355.604 597.623 344.264 594.133 333.086C593.025 329.533 591.968 326.282 589.037 323.282C585.66 319.82 583.195 320.191 581.227 316.859C578.814 312.755 581.227 309.965 578.856 307.055C576.245 303.874 572.496 306.162 569.347 303.674C564.231 299.63 570.59 290.729 566.292 281.025C562.563 272.606 553.314 269.214 548.643 267.498C542.107 265.1 532.941 263.826 531.335 266.826C530.237 268.873 533.686 271.041 533.034 275.275C532.288 280.162 526.964 281.979 527.607 283.725H527.596Z" fill="#3D4B71"/>
<path d="M423.181 483.748C413.352 475.198 397.163 471.525 392.388 476.824C387.738 481.971 394.253 495.177 399.535 502.402C407.521 513.32 413.528 511.705 422.083 522.121C427.945 529.265 430.203 537.002 434.73 552.486C441.245 574.773 437.692 576.469 442.974 584.457C452.876 599.418 467.501 596.749 471.022 608.43C474.948 621.435 459.412 633.376 463.876 638.263C467.118 641.815 478.345 638.835 485.326 632.935C494.71 625.007 498.076 610.396 494.13 598.836C488.34 581.908 469.686 579.861 470.484 569.003C471.095 560.684 482.685 553.108 488.081 555.155C492.048 556.66 490.474 562.531 496.326 571.672C497.247 573.107 504.591 584.567 510.619 583.393C514.027 582.731 514.254 578.566 521.07 566.344C524.643 559.932 526.425 556.731 528.765 554.091C538.056 543.615 549.418 544.267 549.667 540.243C549.998 534.905 529.905 535.728 517.217 522.131C510.091 514.494 512.483 510.009 503.472 484.831C498.024 469.609 491.644 451.817 485.875 452.329C481.276 452.74 478.749 464.641 477.63 469.91C473.518 489.267 480.303 496.572 474.886 502.944C467.853 511.203 446.983 510.019 435.838 500.817C428.878 495.067 430.866 490.441 423.191 483.768L423.181 483.748Z" fill="#1D1D20"/>
<path d="M303.15 438.461C291.736 438.722 278.81 431.135 278.406 425.144C278.074 420.217 286.391 419.455 292.699 408.095C294.729 404.453 296.873 400.569 296.552 395.843C295.754 384.453 281.326 378.954 282.808 375.593C284.517 371.729 302.87 380.69 317.453 373.997C327.977 369.16 337.07 358.273 334.502 352.152C331.291 344.495 308.246 343.742 301.938 348.047C301.006 348.69 297.494 351.449 294.594 350.436C293.548 350.074 292.616 349.231 291.477 349.573C290.586 349.833 290.379 350.576 289.55 351.569C287.966 353.476 286.619 353.306 284.869 354.73C284.154 355.312 283.356 356.165 281.834 359.668C280.001 363.892 279.493 366.451 278.799 368.438C278.095 370.465 276.023 375.422 271.404 378.583C268.017 380.901 266.37 380.078 262.362 383.039C259.866 384.885 258.385 386.771 257.515 387.895C252.553 394.308 255.971 398.281 251.787 402.175C247.198 406.44 243.149 407.493 243.149 407.493C242.527 407.654 240.829 408.045 240.352 409.249C240.155 409.761 240.186 410.383 240.766 411.718C241.626 413.685 242.517 414.508 243.273 415.662C245.324 418.772 245.096 422.254 245.044 423.107C244.92 425.034 244.443 424.783 244.06 427.292C243.957 427.964 243.532 430.975 244.309 434.818C245.013 438.32 245.945 438.742 245.79 441.19C245.738 442.053 245.593 443.899 244.35 445.615C242.973 447.512 241.792 447.121 239.865 449.077C238.156 450.813 237.514 452.73 237.069 454.055C236.841 454.727 236.095 457.085 236.333 460.226C236.53 462.915 237.349 464.872 237.649 465.565C237.991 466.327 239.182 468.836 241.802 471.184C244.454 473.552 245.666 473.161 248.089 475.649C249.985 477.586 250.347 478.961 250.803 478.841C251.953 478.529 248.307 470.07 250.43 461.42C252.47 453.101 258.944 448.234 260.052 447.432C266.526 442.715 276.997 439.815 284.465 443.769C291.518 447.502 293.59 456.122 295.806 455.429C297.691 454.837 295.806 448.696 298.903 446.769C302.3 444.652 307.531 450.231 310.939 448.104C313.321 446.619 313.859 441.963 311.974 439.775C310.141 437.648 306.495 438.4 303.17 438.481L303.15 438.461Z" fill="#1D1D20"/>
<path d="M434.079 437.597C434.048 438.219 437.715 438.039 439.092 440.327C440.242 442.233 438.792 444.18 439.558 444.732C441.267 445.966 450.755 438.059 449.595 436.072C449.294 435.56 448.466 435.761 441.909 436.373C437.062 436.825 434.1 437.035 434.069 437.587L434.079 437.597Z" fill="#1C2236"/>
<path d="M276.406 593.528C274.542 595.394 275.143 599.408 276.406 599.84C277.981 600.372 280.073 595.194 283.087 595.595C284.226 595.746 284.237 596.528 286.422 597.863C287.976 598.816 290.607 600.422 292.274 599.559C294.159 598.586 294.646 594.562 292.978 592.926C291.829 591.802 290.43 592.575 285.034 592.775C279.244 592.986 277.722 592.213 276.406 593.528Z" fill="#1D1D20"/>
<path d="M297.452 592.796C296.831 591.892 297.711 589.364 299.576 589.183C301.274 589.022 302.693 590.919 302.414 591.953C302.03 593.367 298.229 593.939 297.452 592.796Z" fill="#1D1D20"/>
<path d="M581.166 635.062C584.781 635.814 587.764 642.417 587.277 648.509C586.562 657.55 578.804 657.911 574.806 670.615C573.729 674.037 573.481 676.596 571.275 681.101C569.203 685.336 567.639 688.557 563.983 690.444C560.316 692.34 554.816 692.752 551.285 690.213C544.231 685.145 546.903 669.742 553.874 665.377C556.059 664.012 557.447 664.484 558.576 662.868C561.518 658.644 554.288 652.141 557.168 646.913C558.089 645.237 559.747 644.354 563.051 642.588C566.137 640.932 567.37 641.033 571.047 639.628C578.11 636.938 578.825 634.58 581.156 635.072L581.166 635.062Z" fill="#3D4B71"/>
<path d="M108.005 762.082C111.899 761.42 119.149 761.38 120.454 764.701C121.5 767.37 118.549 771.816 115.048 773.09C113.256 773.742 112.054 773.301 111.806 773.873C111.153 775.338 118.393 779.322 124.256 783.576C130.491 788.102 134.25 792.337 139.409 797.996C147.249 806.606 146.462 807.951 153.609 815.316C157.4 819.23 161.47 823.364 167.933 827.388C175.97 832.396 183.076 834.342 185.841 835.025C194.127 837.052 200.756 838.667 206.328 835.165C211.414 831.964 212.926 826.194 213.485 824.067C216.085 814.183 210.865 806.446 212.336 805.753C213.775 805.071 220.352 811.704 222.652 820.745C223.087 822.451 226.101 835.025 219.358 841.838C211.631 849.656 195.764 845.2 187.271 842.812C175.069 839.39 164.298 833.67 132.407 806.175C101.987 779.944 95.8449 771.394 98.1754 766.899C99.9465 763.477 106.658 762.333 108.025 762.102L108.005 762.082Z" fill="#1D1D20"/>
<path d="M565.555 94.7399C561.381 93.626 554.317 99.5064 551.448 105.728C549.429 110.113 549.719 114.157 547.295 114.84C544.633 115.592 542.178 111.297 539.827 112.16C537.942 112.853 536.896 116.555 537.611 119.666C539.04 125.838 546.425 125.296 553.654 133.605C557.984 138.582 559.361 143.398 561.122 142.987C563.245 142.495 562.417 135.17 564.716 134.678C566.871 134.217 568.486 140.458 572.743 140.84C575.343 141.08 575.809 138.833 579.662 138.16C583.95 137.408 585.473 139.826 588.787 139.234C593.054 138.471 597.518 133.243 596.814 129.32C595.706 123.158 582.873 125.727 574.68 116.455C566.777 107.504 570.837 96.1548 565.555 94.7399Z" fill="#1C2236"/>
<path d="M438.355 149.62C439.816 150.975 442.26 153.313 442.965 156.875C443.627 160.257 442.063 161.451 441.235 167.201C440.261 173.974 442.001 175.299 440.375 178.079C438.19 181.801 432.793 183.317 428.858 183.377C418.842 183.537 414.637 174.386 408.536 176.403C404.393 177.767 405.481 182.263 400.644 184.21C394.595 186.648 389.634 180.959 385.097 183.648C380.975 186.096 381.451 192.94 380.198 192.85C378.862 192.759 380.54 185.163 375.879 179.463C372.989 175.921 370.079 176.082 368.971 172.77C367.935 169.679 369.986 168.144 370.7 163.839C371.985 156.133 366.733 153.192 367.241 146.82C367.8 139.826 374.812 135.029 376.739 133.715C396.967 119.857 431.602 143.348 438.355 149.61V149.62Z" fill="#1C2236"/>
<path d="M328.193 246.164C325.956 249.075 322.424 249.667 321.937 249.737C318.591 250.239 317.68 248.493 311.673 247.278C307.416 246.425 307.82 247.298 304.184 246.385C300.828 245.542 299.057 244.449 294.345 243.485C291.714 242.953 290.75 242.983 289.849 243.485C288.182 244.418 288.078 246.225 286.856 249.065C284.733 254.022 283.076 253.149 281.936 256.651C280.341 261.538 283.324 263.946 281.294 267.81C279.772 270.7 277.337 270.83 277.441 272.496C277.576 274.583 281.387 274.422 285.561 278.296C288.938 281.427 288.348 283.283 290.906 284.317C293.568 285.4 294.935 283.684 299.886 283.644C303.884 283.614 304.153 284.718 307.157 284.758C312.884 284.838 318.477 280.875 321.481 276.5C324.972 271.422 322.413 269.515 325.759 264.448C330.005 258.016 335.08 259.641 337.95 253.741C340.508 248.472 337.701 244.619 340.518 242.361C341.761 241.368 342.859 241.659 352.274 242.361C358.737 242.843 359.41 242.793 360.394 242.361C364.599 240.515 363.833 236.411 367.883 234.554C370.493 233.35 371.259 234.845 377.929 234.554C382.974 234.333 383.471 233.44 385.843 233.661C390.193 234.073 392.047 237.424 398.033 243.927C409.375 256.259 415.486 258.076 415.569 264.679C415.6 267.388 414.616 270.117 415.993 271.151C417.278 272.104 420.126 271.241 421.338 269.365C423.036 266.736 420.675 263.424 422.197 261.999C423.751 260.544 427.324 262.973 427.967 261.999C428.381 261.367 427.438 259.531 424.549 256.641C418.489 250.59 414.709 250.76 408.94 246.154C406.112 243.897 399.628 238.729 400.602 233.43C401.244 229.948 404.869 227.721 407.448 226.958C411.622 225.724 416.118 227.43 418.572 230.31C421.503 233.751 419.66 236.672 422.632 239.682C424.921 242 426.713 240.977 431.83 243.034C435.03 244.318 439.329 246.044 442.094 250.178C444.373 253.59 446.102 259.39 444.87 264.689C444.393 266.756 443.575 268.261 444.228 270.268C444.901 272.315 446.32 272.466 448.288 275.175C450.598 278.346 450.38 280.503 451.281 280.534C452.938 280.584 454.906 273.238 455.776 267.589C456.605 262.16 456.046 260.755 457.485 259.33C459.702 257.143 462.353 259.139 468.392 257.544C471.696 256.671 474.503 255.928 476.087 253.53C479.029 249.075 474.482 243.897 477.589 240.144C478.925 238.528 481.743 237.113 484.436 237.023C486.321 236.953 487.305 237.565 488.289 236.802C489.77 235.658 488.62 233.46 489.998 231.223C491.655 228.523 495.207 228.614 495.124 227.871C495.042 227.139 491.562 227.66 486.787 226.306C483.452 225.362 483.503 224.64 480.158 223.847C476.73 223.034 475.839 223.596 473.529 222.733C470.38 221.559 470.639 219.221 467.967 218.489C466.331 218.047 463.948 218.177 462.405 219.602C460.313 221.549 461.608 224.198 459.837 227.41C458.428 229.968 456.087 231.052 453.85 232.096C448.526 234.574 443.544 233.782 438.883 232.989C432.617 231.915 427.449 231.032 426.268 227.63C424.839 223.496 430.67 219.542 429.044 216.251C427.666 213.451 423.192 215.779 417.92 212.237C412.669 208.705 411.053 202.302 410.866 201.53C409.799 197.084 410.835 193.643 410.224 193.492C408.961 193.191 407.075 208.675 400.384 210.23C396.739 211.073 395.05 206.989 390.12 207.771C385.439 208.514 384.91 212.528 380.716 212.678C376.728 212.829 372.326 209.387 371.953 205.985C371.663 203.376 373.911 202.292 373.455 199.734C372.958 197.014 370.172 196.964 367.893 194.375C363.118 188.956 368.38 181.27 363.615 175.63C361.202 172.77 357.37 171.807 356.562 172.73C355.402 174.035 360.394 179.032 358.696 182.323C357.629 184.4 354.988 183.658 353.993 185.896C352.844 188.475 355.661 190.943 354.418 193.04C353.31 194.897 350.078 194.636 349.716 194.606C346.743 194.355 343.957 192.147 342.662 189.478C339.576 183.106 345.614 175.439 343.729 174.075C342.507 173.192 338.457 175.359 337.1 178.761C335.909 181.761 337.608 183.748 336.883 190.361C336.551 193.442 336.054 194.164 335.598 194.606C333.848 196.282 331.704 194.526 327.903 195.499C323.532 196.613 321.253 200.205 320.849 200.857C319.938 202.292 318.757 204.159 319.347 205.764C320.155 207.952 323.387 207.29 326.836 209.337C331.694 212.227 333.144 218.248 333.247 218.709C334.532 224.349 330.834 225.342 329.933 235.287C329.425 240.816 330.316 243.375 328.172 246.164H328.193Z" fill="#3D4B71"/>
<path d="M410.472 109.43C407.127 109.029 402.135 108.477 395.993 110.093C393.289 110.805 383.802 113.304 377.94 122.134C372.419 130.463 373.6 139.163 374.19 143.589C374.635 146.85 375.816 154.788 382.196 162.073C383.408 163.458 393.61 174.717 409.789 173.954C429.551 173.021 438.811 155.049 439.256 154.155C439.95 152.751 447.822 136.123 438.407 122.636C430.908 111.899 417.402 110.273 410.472 109.43Z" fill="#0E1522"/>
<path d="M388.566 133.424C389.001 133.213 386.578 129.912 386.888 126.018C387.147 122.677 389.436 118.713 393.01 117.127C397.039 115.341 399.328 118.101 405.708 116.826C409.136 116.144 413.352 114.378 413.197 113.123C412.989 111.468 405.076 109.962 398.054 112.09C396.034 112.702 390.348 114.418 387.344 119.797C386.94 120.519 384.113 125.777 386.329 130.594C387.075 132.21 388.287 133.564 388.577 133.424H388.566Z" fill="#1D1D20"/>
<path d="M408.495 136.273C406.154 137.457 402.363 136.554 397.402 135.38C394.036 134.577 392.399 133.775 391.395 134.638C390.069 135.772 390.369 139.354 392.317 141.2C395.424 144.141 399.971 140.117 404.942 142.545C409.655 144.843 407.873 149.569 413.725 154.185C416.822 156.624 420.033 157.447 424.197 158.51C430.287 160.066 433.363 160.848 435.59 159.403C438.583 157.467 437.527 153.152 436.978 138.361C436.46 124.412 437.175 122.435 434.824 118.813C430.764 112.581 423.513 110.594 419.733 109.561C410.266 106.972 400.302 108.587 400.023 110.604C399.805 112.18 405.698 112.29 409.417 117.167C414.129 123.349 412.938 134.026 408.495 136.263V136.273Z" fill="#3E495F"/>
<path d="M415.363 119.275C416.813 117.448 417.3 117.127 417.207 116.586C417.03 115.562 415.031 115.03 410.888 114.348C403.203 113.083 399.33 112.491 397.797 114.197C396.771 115.341 396.471 117.168 397.03 118.522C398.263 121.513 403.618 121.994 403.504 122.546C403.39 123.078 398.729 121.703 397.186 123.59C396.17 124.834 396.564 127.423 397.952 128.366C399.837 129.641 402.105 126.881 405.503 127.915C406.569 128.236 406.445 128.547 409.811 131.046C412.701 133.193 414.172 134.267 415.197 134.176C417.642 133.956 419.351 130.584 419.817 128.206C420.127 126.62 420.303 123.339 418.584 122.386C416.606 121.292 413.395 123.961 412.887 123.279C412.525 122.797 413.851 121.141 415.353 119.255L415.363 119.275Z" fill="#939AB1"/>
<path d="M668.302 359.988C665.35 361.112 662.139 364.695 661.383 368.347C660.699 371.639 662.512 372.622 662.097 377.499C661.714 382.095 659.922 383.379 661.145 385.065C662.854 387.403 666.965 385.788 671.409 387.654C678.452 390.614 676.318 398.16 681.673 400.79C688.126 403.951 702.875 398.722 705.775 391.036C710.871 377.509 679.477 355.754 668.312 359.998L668.302 359.988Z" fill="#1C2236"/>
<path d="M671.224 337.41C667.754 341.645 661.488 349.271 662.264 358.724C662.803 365.317 666.511 369.642 671.483 375.432C679.541 384.825 687.174 393.726 699.645 394.568C715.15 395.612 726.056 383.37 728.055 381.001C729.806 378.934 738.278 368.94 736.248 356.055C734.953 347.867 730.075 342.659 724.472 336.678C718.599 330.416 713.607 325.078 705.02 323.362C694.683 321.285 685.993 325.81 683.259 327.235C676.962 330.516 673.409 334.751 671.224 337.41Z" fill="#0E1522"/>
<path d="M698.474 348.027C704.948 355.142 705.548 354.339 708.262 358.212C713.938 366.29 713.71 373.144 716.786 373.315C718.982 373.435 720.888 370.023 721.499 368.92C723.881 364.645 721.893 362.337 723.86 357.329C725.497 353.165 727.382 353.436 727.848 350.656C728.604 346.161 724.233 342.026 719.686 337.832C713.182 331.831 708.065 327.115 700.836 327.466C696.372 327.687 690.271 329.874 689.235 333.788C688.417 336.879 691.763 340.632 698.485 348.017L698.474 348.027Z" fill="#3E495F"/>
<path d="M724.845 353.245C721.344 351.048 718.382 353.556 715.502 351.309C713.182 349.492 713.607 346.703 712.519 346.582C710.437 346.351 706.771 356.537 709.443 358.734C711.774 360.651 716.776 354.74 723.571 356.958C726.067 357.771 727.734 359.336 728.232 358.815C728.822 358.182 727.444 354.881 724.834 353.245H724.845Z" fill="#939AB1"/>
<path d="M710.935 366.652C710.759 366.873 698.413 362.407 698.247 354.61C698.092 347.235 708.977 342.338 709.029 342.398C709.071 342.438 704.296 345.238 702.525 350.907C702.255 351.76 701.81 353.195 701.893 354.921C702.255 361.895 711.09 366.441 710.935 366.642V366.652Z" fill="#1D1D20"/>
<path d="M66.3902 434.076C69.135 430.042 78.6846 429.671 84.9612 432.591C92.3254 436.023 94.9148 443.89 98.2085 453.895C100.27 460.146 99.2339 459.855 101.326 466.267C105.832 480.085 110.927 482.393 109.229 487.501C107.375 493.1 98.9438 497.265 92.0872 497.375C87.2399 497.445 84.9405 495.469 79.9586 496.693C75.1734 497.867 74.728 500.335 71.2997 500.938C65.4477 501.961 56.271 496.643 54.5309 490.401C51.3822 479.112 74.8316 473.091 74.8005 457.096C74.7798 445.656 62.7651 439.424 66.3902 434.086V434.076Z" fill="#1C2236"/>
<path d="M30.4286 486.929C36.612 491.956 43.0647 493.11 46.9074 493.803C50.5221 494.455 63.9765 496.873 76.9544 488.384C79.3574 486.808 93.2261 477.747 94.5104 461.611C96.0433 442.304 78.1663 430.433 75.0176 428.456C72.1279 426.64 61.0557 419.906 46.6277 422.776C44.1419 423.268 29.3514 426.208 21.9769 439.595C18.6003 445.726 18.2275 451.406 18.0307 454.928C17.8546 458.189 17.2539 476.222 30.4286 486.919V486.929Z" fill="#0E1522"/>
<path d="M22.6496 468.445C24.0582 466.599 31.8367 471.355 33.6389 469.288C35.4618 467.211 28.4395 461.481 30.4902 456.433C31.8264 453.142 35.4204 454.065 38.828 449.178C41.0652 445.957 40.4024 444.281 42.7328 442.465C44.8768 440.799 48.1601 440.107 50.9567 440.809C57.6787 442.495 59.8123 451.777 61.7284 451.225C63.4374 450.734 62.1842 443.177 63.7067 442.836C65.1568 442.515 66.7518 449.228 69.9834 449.339C71.8477 449.409 74.0124 447.272 73.9503 445.445C73.8674 442.987 69.8384 442.706 68.8233 439.334C68.0569 436.785 69.9419 435.541 69.4448 433.564C68.4712 429.731 59.7087 428.055 54.3021 428.155C54.3021 428.155 41.1481 429.48 26.4508 446.258C26.2955 446.439 25.7362 447.091 24.804 447.713C23.1779 448.787 21.7485 448.857 21.0339 449.088C17.9266 450.071 16.9944 457.467 17.388 462.745C17.8127 468.565 19.9152 472.76 21.3549 475.57C21.6346 476.122 22.7428 478.379 24.6486 481.069C26.2022 483.246 29.0506 486.789 29.7134 486.417C30.2935 486.096 29.0713 482.875 28.3773 481.079C27.7973 479.553 27.2587 478.45 27.1862 478.289C23.7268 471.194 21.966 469.358 22.6496 468.445Z" fill="#3E495F"/>
<path d="M54.199 442.334C54.1265 444.05 56.6434 445.997 58.9221 446.208C60.7139 446.368 61.1075 445.345 63.4172 445.425C65.6751 445.505 66.1205 446.509 67.5498 446.137C68.917 445.786 69.6421 444.582 70.6985 442.856C71.9829 440.729 73.1118 438.872 72.3972 437.698C71.3925 436.052 68.047 437.859 65.7787 435.872C63.8212 434.156 64.7844 431.466 62.9718 430.724C61.8739 430.272 60.3307 430.764 59.5124 431.657C58.0831 433.223 59.8024 435.069 58.7563 437.588C57.5549 440.498 54.2715 440.417 54.199 442.344V442.334Z" fill="#939AB1"/>
<path d="M55.7221 439.213C56.7475 441.471 61.4498 441.632 62.4959 440.036C63.2313 438.912 62.2577 436.805 60.8905 435.701C60.559 435.43 59.1815 434.317 57.7211 434.738C55.981 435.25 55.0385 437.708 55.7221 439.213Z" fill="#1D1D20"/>
<path d="M229.881 168.908C240.767 170.618 241.899 174.168 242.087 174.931C242.82 177.932 239.002 179.438 237.771 186.322C237.149 189.807 237.804 191.216 236.361 193.894C235.984 194.593 234.364 197.519 231.146 198.809C227.939 200.089 225.187 198.939 222.634 198.508C214.999 197.218 212.114 202.886 202.87 205.209C194.059 207.425 181.298 206.285 177.402 199.304C174.883 194.797 176.171 188.946 176.637 187.204C181.12 170.306 211.903 166.079 229.869 168.908H229.881Z" fill="#1C2236"/>
<path d="M344.932 344.595C348.432 344.606 353.197 345.93 354.305 349.422C355.807 354.149 350.017 360.942 348.163 363.12C342.394 369.883 338.686 369.09 336.501 374.078C333.663 380.54 337.806 386.611 335.579 388.337C334.077 389.501 331.726 387.133 323.44 382.136C318.323 379.045 315.734 377.49 312.513 376.255C305.552 373.606 303.636 375.553 296.852 373.947C294.294 373.335 283.553 370.796 277.96 360.892C274.273 354.359 272.802 344.606 275.64 342.398C278.499 340.17 283.284 347.455 296.925 354.209C307.21 359.296 312.347 361.835 318.686 360.47C330.69 357.882 333.714 344.545 344.921 344.585L344.932 344.595Z" fill="#1C2236"/>
<path d="M342.444 309.985C340.051 307.999 333.112 302.379 322.692 301.065C305.354 298.887 293.132 310.497 291.112 312.414C287.777 315.585 278.238 324.636 279.709 337.691C281.387 352.603 296.053 360.621 298.352 361.875C311.993 369.331 333.36 370.545 346.131 358.072C354.686 349.713 357.152 337.38 354.096 326.964C351.32 317.501 344.64 311.802 342.454 309.985H342.444Z" fill="#0E1522"/>
<path d="M313.774 321.304C310.387 317.762 306.648 313.828 307.653 311.129C308.668 308.39 314.022 308.279 313.971 308.008C313.888 307.657 304.69 307.155 302.515 311.721C300.868 315.183 304.235 319.528 304.98 320.481C309.589 326.412 318.31 327.496 318.87 326.402C319.16 325.85 317.254 324.957 313.774 321.314V321.304Z" fill="#1D1D20"/>
<path d="M325.366 334.48C327.613 339.769 334.739 338.996 335.827 344.505C336.355 347.174 334.822 348.057 334.822 352.774C334.822 354.158 334.812 360.691 337.08 361.474C340.405 362.628 350.213 352.041 352.171 339.488C354.066 327.406 347.955 318.264 346.143 315.545C343.843 312.103 338.685 304.376 331.487 304.386C328.152 304.386 324.185 306.072 323.833 308.239C323.501 310.327 326.805 310.969 328.483 314.08C332.067 320.703 322.445 327.606 325.366 334.47V334.48Z" fill="#3E495F"/>
<path d="M326.835 324.586C328.378 324.927 333.381 318.274 331.372 312.675C328.803 305.53 316.581 304.928 316.125 305.961C315.825 306.644 320.807 307.738 323.924 312.655C327.581 318.405 325.437 324.285 326.835 324.596V324.586Z" fill="#939AB1"/>
<path d="M315.929 331.731C314.199 336.899 305.737 339.919 299.16 337.39C294.178 335.484 290.864 330.607 290.708 325.519C290.532 320 294.064 313.708 299.16 312.926C303.779 312.213 307.612 316.358 310.346 319.318C312.987 322.168 317.493 327.045 315.929 331.731Z" fill="#3E495F"/>
<path d="M160.598 553.479C158.537 554.744 155.078 556.931 153.369 560.975C151.742 564.819 153.296 566.585 152.861 573.569C152.343 581.797 149.961 582.961 151.193 586.614C152.851 591.521 158.858 594.552 163.488 595.545C175.275 598.064 182.504 588.23 189.216 592.023C193.763 594.592 191.37 599.649 196.601 603.071C203.136 607.356 210.407 601.787 215.099 606.011C219.366 609.855 217.109 617.832 218.61 618.013C220.205 618.214 220.102 608.861 227.021 603.202C231.319 599.689 234.706 600.552 236.84 596.9C238.828 593.498 236.788 591.2 237.005 585.962C237.389 576.569 244.318 574.301 245.291 566.665C246.348 558.276 239.263 550.991 237.306 548.984C216.829 527.931 170.127 547.639 160.608 553.479H160.598Z" fill="#1C2236"/>
<path d="M207.404 515.467C211.433 514.986 217.451 514.313 224.846 516.26C228.098 517.123 239.544 520.133 246.597 530.78C253.246 540.815 251.827 551.301 251.113 556.63C250.585 560.553 249.155 570.117 241.47 578.897C240.01 580.563 227.715 594.13 208.222 593.217C184.411 592.093 173.256 570.438 172.717 569.354C171.878 567.658 162.391 547.619 173.742 531.372C182.784 518.438 199.056 516.471 207.404 515.467Z" fill="#0E1522"/>
<path d="M233.806 544.388C233.288 544.137 236.208 540.163 235.836 535.457C235.515 531.433 232.77 526.646 228.461 524.74C223.603 522.592 220.848 525.914 213.163 524.378C209.03 523.555 203.945 521.428 204.131 519.913C204.38 517.916 213.909 516.1 222.371 518.658C224.805 519.391 231.662 521.468 235.266 527.941C235.753 528.814 239.16 535.156 236.498 540.956C235.597 542.902 234.137 544.538 233.795 544.368L233.806 544.388Z" fill="#939AB1"/>
<path d="M209.787 547.819C212.615 549.244 217.172 548.161 223.148 546.736C227.198 545.772 229.176 544.809 230.388 545.833C231.994 547.197 231.631 551.512 229.269 553.74C225.53 557.282 220.051 552.435 214.054 555.356C208.368 558.125 210.522 563.815 203.479 569.384C199.751 572.324 195.877 573.318 190.864 574.602C183.531 576.479 179.823 577.422 177.13 575.676C173.525 573.338 174.799 568.14 175.462 550.328C176.084 533.52 175.224 531.132 178.062 526.777C182.951 519.271 191.693 516.872 196.25 515.628C207.664 512.507 219.668 514.454 220 516.882C220.269 518.779 213.164 518.919 208.679 524.79C202.993 532.245 204.443 545.1 209.797 547.799L209.787 547.819Z" fill="#3E495F"/>
<path d="M200.59 529.065C198.425 527.248 197.772 526.987 197.741 526.325C197.69 525.071 199.927 523.977 204.639 522.211C213.402 518.929 217.835 517.334 220.062 518.99C221.553 520.104 222.361 522.191 222.04 523.917C221.325 527.74 215.121 529.546 215.401 530.178C215.66 530.781 220.828 528.071 223.117 529.948C224.619 531.182 224.805 534.333 223.386 535.768C221.47 537.705 218.115 534.985 214.365 536.992C213.184 537.624 213.402 537.955 210.046 541.698C207.156 544.91 205.696 546.525 204.453 546.656C201.511 546.967 198.663 543.374 197.524 540.685C196.768 538.889 195.742 535.055 197.534 533.53C199.595 531.774 204.049 534.192 204.484 533.259C204.795 532.607 202.827 530.961 200.579 529.075L200.59 529.065Z" fill="#1D1D20"/>
<path d="M782.928 514.183C788.345 514.695 793.845 523.857 794.197 532.828C794.726 546.144 783.457 547.94 779.821 567.147C778.848 572.314 778.92 576.098 776.486 583.032C774.197 589.554 772.467 594.511 767.454 597.873C762.421 601.245 754.466 602.74 748.863 599.609C737.677 593.367 738.909 570.418 748.334 562.902C751.286 560.544 753.41 561.015 754.766 558.476C758.329 551.823 746.636 543.505 749.94 535.407C750.996 532.808 753.254 531.252 757.78 528.121C762.006 525.201 763.819 525.141 768.946 522.492C778.796 517.404 779.428 513.852 782.928 514.183Z" fill="#3D4B71"/>
<path d="M709.142 564.417C710.654 563.765 712.622 568.2 718.049 571.853C722.762 575.024 724.088 573.559 729.93 577.372C731.67 578.506 734.3 580.422 736.859 583.363C739.293 586.162 741.178 589.313 740.815 589.594C740.246 590.036 735.895 582.088 727.692 580.483C723.881 579.74 723.497 581.185 719.769 580.242C714 578.777 709.049 573.789 708.386 568.491C708.334 568.04 707.93 564.929 709.132 564.417H709.142Z" fill="#1D1D20"/>
<path d="M844.557 399.897C850.896 404.694 849.518 417.077 843.428 424.793C837.711 432.048 831.724 430.282 825.427 437.949C821.439 442.796 820.704 448.224 819.243 459.092C817.389 472.79 816.467 479.633 821.491 484.46C826.297 489.076 835.277 491.173 836.675 491.504C842.962 492.98 844.557 491.826 846.805 493.381C853.516 498.047 850.264 516.12 837.804 523.445C835.784 524.629 831.745 525.663 823.738 527.67C805.913 532.145 804.795 530.951 798.984 533.309C785.768 538.658 779.502 549.706 777.606 553.038C774.302 558.858 772.345 565.651 770.294 572.766C767.87 581.155 767.943 583.784 764.67 586.855C760.102 591.15 751.319 594.16 744.421 592.023C736.259 589.494 737.823 581.958 728.667 578.396C721.904 575.766 718.848 579.018 711.225 576.991C701.064 574.281 692.033 564.618 693.783 558.196C696.124 549.656 723.53 548.763 733.721 548.331C742.94 547.94 746.461 548.683 752.282 546.455C765.115 541.528 769.341 529.727 769.724 528.603C773.09 518.669 770.542 505.493 761.283 500.415C755.317 497.144 747.973 498.007 747.777 496.191C747.538 493.983 758.434 493.461 761.283 488.203C764.121 482.955 752.613 476.713 755.099 473.171C756.87 470.642 762.909 472.89 765.488 469.829C768.077 466.769 763.551 462.675 766.441 458.721C768.481 455.911 772.231 455.951 772.137 454.757C771.961 452.379 757.388 454.888 750.045 448.214C744.897 443.538 747.31 437.979 740.785 434.326C736.86 432.139 734.001 433.022 732.945 431.155C730.459 426.73 744.68 418.522 742.681 415.682C740.796 413.012 727.248 418.943 723.675 415.09C721.945 413.223 722.991 409.53 725.104 407.554C726.948 405.828 728.853 406.119 732.945 404.583C737.119 403.008 738.165 401.553 741.262 399.827C747.559 396.295 750.511 398.251 757.647 395.863C769.123 392.02 771.298 383.701 777.13 384.755C779.916 385.256 779.325 387.143 783.261 389.35C789.983 393.134 800.89 392.762 807.881 388.859C811.589 386.792 812.822 384.484 814.624 384.945C817.482 385.668 815.1 391.658 818.725 395.472C824.37 401.412 837.462 394.538 844.547 399.907L844.557 399.897Z" fill="#1C2236"/>
<path d="M797.439 415.17C797.408 415.792 801.074 415.612 802.452 417.899C803.602 419.806 802.151 421.753 802.918 422.305C804.627 423.539 814.114 415.632 812.954 413.645C812.654 413.133 811.825 413.334 805.269 413.946C800.422 414.397 797.46 414.608 797.428 415.16L797.439 415.17Z" fill="#1D1D20"/>
<path d="M562.199 122.92C560.476 120.71 554.425 112.68 555.1 101.29C555.276 98.3999 555.982 86.5798 566.756 78.7398C568.873 77.1998 576.232 72.2799 586.529 72.7599C596.099 73.1999 602.399 78.0399 606.302 81.0399C611.097 84.7299 624.092 94.7299 622.525 110.03C621.487 120.19 614.294 130.01 603.261 134.42C591.106 139.28 579.844 135.34 577.405 134.42C568.728 131.14 564.14 125.41 562.199 122.91V122.92Z" fill="#3E495F"/>
<path d="M583.175 75.8099C581.307 80.3199 580.363 82.5699 580.311 83.8099C580.155 87.3099 585.241 88.05 590.327 93.64C594.333 98.04 595.963 102.85 597.717 108.04C600.54 116.37 599.585 119.94 602.492 121.3C605.512 122.71 610.515 120.7 612.985 117.64C616.359 113.47 614.895 107.49 617.282 106.9C618.071 106.7 618.933 107.15 619.4 107.58C622.223 110.19 618.165 119.07 614.324 124.41C612.747 126.6 609.664 130.78 603.779 133.95C602.326 134.73 596.991 137.46 589.465 137.64C587.089 137.7 579.844 137.62 572.35 133.34C566.714 130.12 563.641 126.05 561.887 123.68C558.306 118.85 556.874 114.47 556.552 113.45C554.082 105.62 555.255 98.8799 556.002 95.7899C556.801 92.5199 558.213 87.0199 563.164 81.9099C567.451 77.4799 572.018 75.7899 575.868 74.3599C577.674 73.6899 582.646 71.8499 583.663 73.2199C584.058 73.7499 583.694 74.5499 583.175 75.8099Z" fill="#0E1522"/>
<path d="M606.925 95.7299C603.987 89.6599 602.462 86.5999 599.151 85.4299C595.954 84.2999 591.968 85.0999 591.553 86.4899C591.47 86.7699 591.449 87.3399 596.203 91.6199C598.933 94.0799 599.805 94.6699 601.445 96.4199C603.053 98.1499 603.863 99.0099 604.486 100.16C607.049 104.87 604.756 109.61 606.178 110.17C607.029 110.5 608.71 109.14 609.551 107.54C609.914 106.85 611.077 104.3 606.946 95.7299H606.925Z" fill="#10131A"/>
<path d="M604.266 97.24C603.654 97.87 602.305 99.23 602.554 100.86C602.709 101.91 603.446 102.54 604.858 103.74C606.508 105.15 607.474 105.97 608.698 105.8C610.017 105.62 611.304 104.45 611.522 103.17C611.802 101.45 609.923 100.87 609.726 98.48C609.57 96.55 610.691 95.69 610.152 95.11C609.363 94.26 606.176 95.3 604.256 97.25L604.266 97.24Z" fill="#939AB1"/>
<path d="M37.2236 678C41.0419 688.982 47.8225 706.681 58.9151 727.149C87.6894 780.246 128.815 817.95 166.967 845.5C220.902 884.446 270.18 902.101 281.348 905.617C289.919 908.315 300.645 911.669 313.318 914.5C327.301 917.624 343.655 920.177 362.102 922" stroke="url(#paint7_radial_108_3)" stroke-opacity="0.15" stroke-miterlimit="10"/>
<path d="M40.2963 678.05C47.7799 682.43 49.9077 693.35 54.0491 703.01C59.3011 715.29 67.366 724.58 68.5596 724.02C69.8882 723.39 64.8438 709.48 59.5087 698.11C54.921 688.32 51.1429 682.61 52.3261 681.74C53.5301 680.86 59.0209 685.58 62.7679 689.49C73.4795 700.67 76.4377 712.07 79.6657 720.13C91.6747 750.09 119.762 764.65 115.662 770.04C113.897 772.35 108.261 770.31 107.202 772.61C105.666 775.96 116.222 783.44 119.045 785.47C151.99 809.2 150.028 824.73 175.479 833.94C180.783 835.86 201.23 843.25 210.167 834.28C216.229 828.19 215.45 816.14 210.727 808.05C201.739 792.67 178.115 791.02 178.831 787.76C179.184 786.15 185.111 785.64 190.27 786.23C196.663 786.97 202.735 789.5 220.079 803.59C230.22 811.83 235.296 815.95 240.184 821.77C247.845 830.88 252.339 836.23 252.868 843.99C253.605 854.64 246.09 858.58 249.277 865.33C251.467 869.97 255.432 869 265.303 877.15C272.361 882.99 270.41 883.55 275.568 887.17C285.18 893.91 291.324 891.52 297.521 898.52C300.738 902.16 299.929 903.77 303.043 905.65C308.129 908.72 312.934 905.99 317.418 909.51C319.297 910.98 321.529 913.86 320.823 915.19C318.394 919.79 280.312 906.77 252.837 894.73C224.179 882.17 203.4 868.84 188.848 859.53C177.285 852.13 164.476 843.89 148.596 831.11C138.03 822.61 120.831 807.86 102.428 787.26C90.3358 773.72 81.8765 762.29 77.7974 756.62C71.0092 747.17 66.1205 739.39 63.6398 735.35C59.1247 727.99 55.6891 721.77 53.3952 717.46C50.6239 712.26 47.9875 707.3 44.9567 700.37C40.9813 691.28 42.6421 693.26 39.248 685.76C37.2655 681.38 35.4283 677.9 36.5078 677.03C37.3693 676.33 39.632 677.66 40.2963 678.05Z" fill="#1C2236"/>
<path d="M355.087 706.584C352.231 705.377 347.802 704.917 345.452 707.681C342.27 711.422 344.172 719.56 344.78 722.168C346.677 730.272 350.026 730.845 349.74 736.102C349.374 742.916 343.484 746.952 344.583 749.282C345.324 750.854 348.221 749.535 357.041 747.906C362.489 746.895 365.243 746.392 368.378 746.398C375.145 746.426 375.9 748.847 382.091 749.756C384.429 750.092 394.23 751.533 402.889 744.543C408.599 739.932 413.838 731.646 412.441 728.669C411.036 725.667 404.119 730.576 390.21 731.929C379.724 732.945 374.487 733.45 369.889 730.017C361.184 723.513 364.245 710.435 355.1 706.578L355.087 706.584Z" fill="#1C2236"/>
<path d="M360.223 685.788C362.617 683.868 369.56 678.436 379.986 677.166C397.335 675.061 409.564 686.283 411.585 688.135C414.922 691.2 424.467 699.949 422.996 712.567C421.317 726.98 406.642 734.73 404.341 735.942C390.692 743.148 369.312 744.322 356.533 732.266C347.973 724.187 345.506 712.267 348.564 702.199C351.341 693.053 358.026 687.544 360.212 685.788H360.223Z" fill="#0E1522"/>
<path d="M388.909 696.729C392.298 693.305 396.039 689.503 395.034 686.894C394.018 684.246 388.66 684.139 388.712 683.877C388.795 683.538 397.998 683.053 400.174 687.466C401.822 690.812 398.454 695.012 397.707 695.933C393.096 701.666 384.369 702.713 383.81 701.656C383.52 701.122 385.426 700.259 388.909 696.738V696.729Z" fill="#1A1A1A"/>
<path d="M377.313 709.464C375.064 714.575 367.933 713.829 366.845 719.153C366.317 721.733 367.85 722.587 367.85 727.145C367.85 728.484 367.861 734.798 365.591 735.554C362.264 736.67 352.45 726.437 350.491 714.304C348.595 702.626 354.709 693.79 356.523 691.162C358.824 687.835 363.985 680.367 371.188 680.377C374.525 680.377 378.494 682.006 378.846 684.101C379.178 686.118 375.872 686.739 374.193 689.746C370.607 696.147 380.235 702.82 377.313 709.454V709.464Z" fill="#3E495F"/>
<path d="M375.841 699.9C374.297 700.23 369.291 693.799 371.302 688.387C373.872 681.481 386.101 680.9 386.557 681.899C386.857 682.558 381.872 683.615 378.753 688.368C375.095 693.925 377.24 699.609 375.841 699.91V699.9Z" fill="#939AB1"/>
<path d="M386.753 706.806C388.484 711.801 396.951 714.721 403.532 712.276C408.517 710.434 411.833 705.72 411.989 700.802C412.165 695.468 408.631 689.387 403.532 688.63C398.91 687.941 395.075 691.947 392.339 694.808C389.696 697.563 385.188 702.277 386.753 706.806Z" fill="#3E495F"/>
<defs>
<radialGradient id="paint0_radial_108_3" cx="0" cy="0" r="1" gradientUnits="userSpaceOnUse" gradientTransform="translate(428.5 231.5) rotate(90) scale(147.5 428.5)">
<stop stop-color="#E9ED0B"/>
</radialGradient>
<radialGradient id="paint1_radial_108_3" cx="0" cy="0" r="1" gradientUnits="userSpaceOnUse" gradientTransform="translate(422.5 282.235) rotate(88.8491) scale(273.82 421.495)">
<stop stop-color="#DEBD46" stop-opacity="0.89"/>
<stop offset="0.942708" stop-color="#464646" stop-opacity="0"/>
</radialGradient>
<radialGradient id="paint2_radial_108_3" cx="0" cy="0" r="1" gradientUnits="userSpaceOnUse" gradientTransform="translate(422.5 300.235) rotate(88.8491) scale(273.82 421.495)">
<stop stop-color="#CA7C45"/>
<stop offset="0.942708" stop-color="#464646" stop-opacity="0"/>
</radialGradient>
<radialGradient id="paint3_radial_108_3" cx="0" cy="0" r="1" gradientUnits="userSpaceOnUse" gradientTransform="translate(225.052 130.455) rotate(88.6737) scale(126.573 224.502)">
<stop stop-color="#C97E40"/>
<stop offset="0.942708" stop-color="#464646" stop-opacity="0"/>
</radialGradient>
<radialGradient id="paint4_radial_108_3" cx="0" cy="0" r="1" gradientUnits="userSpaceOnUse" gradientTransform="translate(358.105 583.029) rotate(88.8132) scale(123.056 195.329)">
<stop stop-color="#DEBD46" stop-opacity="0.89"/>
<stop offset="0.942708" stop-color="#464646" stop-opacity="0"/>
</radialGradient>
<radialGradient id="paint5_radial_108_3" cx="0" cy="0" r="1" gradientUnits="userSpaceOnUse" gradientTransform="translate(647.079 323.128) rotate(88.8132) scale(123.056 195.329)">
<stop stop-color="#DEBD46" stop-opacity="0.89"/>
<stop offset="0.942708" stop-color="#464646" stop-opacity="0"/>
</radialGradient>
<radialGradient id="paint6_radial_108_3" cx="0" cy="0" r="1" gradientUnits="userSpaceOnUse" gradientTransform="translate(164.494 295.031) rotate(89.0889) scale(123.045 149.952)">
<stop stop-color="#DEBD46" stop-opacity="0.89"/>
<stop offset="0.942708" stop-color="#464646" stop-opacity="0"/>
</radialGradient>
<radialGradient id="paint7_radial_108_3" cx="0" cy="0" r="1" gradientUnits="userSpaceOnUse" gradientTransform="translate(199.663 800) rotate(90) scale(122 162.439)">
<stop stop-color="#E9ED0B"/>
</radialGradient>
</defs>
</svg>
